<mxfile modified="2019-10-25T14:55:45.483Z" host="www.draw.io" agent="Mozilla/5.0 (Windows NT 10.0; Win64; x64) AppleWebKit/537.36 (KHTML, like Gecko) Chrome/77.0.3865.90 Safari/537.36" etag="qX_hEzahs-uyYgH5TiPE" version="12.1.6" type="github" pages="8">
  <diagram id="RnfZivXaH4BhRtFcMvS2" name="Cartographie Système">
    <mxGraphModel dx="895" dy="469" grid="1" gridSize="10" guides="1" tooltips="1" connect="1" arrows="1" fold="1" page="1" pageScale="1" pageWidth="827" pageHeight="1169" math="0" shadow="0">
      <root>
        <mxCell id="Arf75LdBkSCwyxHB5K4U-0"/>
        <mxCell id="Arf75LdBkSCwyxHB5K4U-1" parent="Arf75LdBkSCwyxHB5K4U-0"/>
        <mxCell id="hzfXn4pxwLlh3ByuDOcO-0" value="" style="rounded=1;whiteSpace=wrap;html=1;fontSize=14;align=center;fillColor=#dae8fc;strokeColor=#6c8ebf;direction=south;movable=0;resizable=0;rotatable=0;deletable=0;editable=0;connectable=0;fontStyle=0" parent="Arf75LdBkSCwyxHB5K4U-1" vertex="1">
          <mxGeometry x="170" y="260" width="510" height="540" as="geometry"/>
        </mxCell>
        <mxCell id="hzfXn4pxwLlh3ByuDOcO-1" value="WebApp E-Commerce" style="shape=folder;fontStyle=1;spacingTop=10;tabWidth=40;tabHeight=14;tabPosition=left;html=1;fontSize=16;align=center;" parent="Arf75LdBkSCwyxHB5K4U-1" vertex="1">
          <mxGeometry x="210" y="335" width="190" height="100" as="geometry"/>
        </mxCell>
        <mxCell id="N76Ln_JSzxriDpdFP_38-1" value="Admin des &lt;br&gt;commandes&lt;br&gt;(boutique)" style="shape=folder;fontStyle=1;spacingTop=10;tabWidth=40;tabHeight=14;tabPosition=left;html=1;fontSize=16;align=center;" parent="Arf75LdBkSCwyxHB5K4U-1" vertex="1">
          <mxGeometry x="459" y="650" width="162" height="100" as="geometry"/>
        </mxCell>
        <mxCell id="_3I_sJbPEHM6R3zzGNif-8" value="System" style="text;html=1;strokeColor=none;fillColor=none;align=center;verticalAlign=middle;whiteSpace=wrap;rounded=0;fontSize=16;" parent="Arf75LdBkSCwyxHB5K4U-1" vertex="1">
          <mxGeometry x="500" y="284.7058823529412" width="40" height="20" as="geometry"/>
        </mxCell>
        <mxCell id="xKOTKGOpiuRnV1Tdx6P--0" value="Backend" style="shape=folder;fontStyle=1;spacingTop=10;tabWidth=40;tabHeight=14;tabPosition=left;html=1;fontSize=16;align=center;" parent="Arf75LdBkSCwyxHB5K4U-1" vertex="1">
          <mxGeometry x="320" y="504" width="220" height="80" as="geometry"/>
        </mxCell>
        <mxCell id="xKOTKGOpiuRnV1Tdx6P--1" value="Application mobile&lt;br&gt;&amp;nbsp;de livraison" style="shape=folder;fontStyle=1;spacingTop=10;tabWidth=40;tabHeight=14;tabPosition=left;html=1;fontSize=16;align=center;" parent="Arf75LdBkSCwyxHB5K4U-1" vertex="1">
          <mxGeometry x="205" y="640" width="190" height="100" as="geometry"/>
        </mxCell>
        <mxCell id="xKOTKGOpiuRnV1Tdx6P--2" value="&amp;nbsp;Back Office / BI" style="shape=folder;fontStyle=1;spacingTop=10;tabWidth=40;tabHeight=14;tabPosition=left;html=1;fontSize=16;align=center;" parent="Arf75LdBkSCwyxHB5K4U-1" vertex="1">
          <mxGeometry x="460" y="350" width="200" height="100" as="geometry"/>
        </mxCell>
        <mxCell id="xKOTKGOpiuRnV1Tdx6P--11" value="" style="shape=flexArrow;endArrow=classic;startArrow=classic;html=1;endWidth=23;endSize=5.4;startWidth=23;startSize=5.4;exitX=0.714;exitY=0.153;exitDx=0;exitDy=0;exitPerimeter=0;entryX=0.25;entryY=1;entryDx=0;entryDy=0;entryPerimeter=0;" parent="Arf75LdBkSCwyxHB5K4U-1" source="xKOTKGOpiuRnV1Tdx6P--1" target="xKOTKGOpiuRnV1Tdx6P--0" edge="1">
          <mxGeometry width="50" height="50" relative="1" as="geometry">
            <mxPoint x="290" y="650" as="sourcePoint"/>
            <mxPoint x="340" y="590" as="targetPoint"/>
          </mxGeometry>
        </mxCell>
        <mxCell id="xKOTKGOpiuRnV1Tdx6P--13" value="" style="shape=flexArrow;endArrow=classic;startArrow=classic;html=1;endWidth=23;endSize=5.4;startWidth=23;startSize=5.4;entryX=0.789;entryY=1.003;entryDx=0;entryDy=0;entryPerimeter=0;exitX=0.318;exitY=0.2;exitDx=0;exitDy=0;exitPerimeter=0;" parent="Arf75LdBkSCwyxHB5K4U-1" source="xKOTKGOpiuRnV1Tdx6P--0" target="hzfXn4pxwLlh3ByuDOcO-1" edge="1">
          <mxGeometry width="50" height="50" relative="1" as="geometry">
            <mxPoint x="410" y="510" as="sourcePoint"/>
            <mxPoint x="340" y="434.5" as="targetPoint"/>
          </mxGeometry>
        </mxCell>
        <mxCell id="xKOTKGOpiuRnV1Tdx6P--14" value="" style="shape=flexArrow;endArrow=classic;startArrow=classic;html=1;endWidth=23;endSize=5.4;startWidth=23;startSize=5.4;exitX=0.736;exitY=0.2;exitDx=0;exitDy=0;exitPerimeter=0;" parent="Arf75LdBkSCwyxHB5K4U-1" source="xKOTKGOpiuRnV1Tdx6P--0" edge="1">
          <mxGeometry width="50" height="50" relative="1" as="geometry">
            <mxPoint x="470" y="517.5" as="sourcePoint"/>
            <mxPoint x="507" y="452" as="targetPoint"/>
          </mxGeometry>
        </mxCell>
        <mxCell id="xKOTKGOpiuRnV1Tdx6P--15" value="" style="shape=flexArrow;endArrow=classic;startArrow=classic;html=1;endWidth=23;endSize=5.4;startWidth=23;startSize=5.4;exitX=0;exitY=0;exitDx=101;exitDy=14;exitPerimeter=0;entryX=0.848;entryY=0.992;entryDx=0;entryDy=0;entryPerimeter=0;" parent="Arf75LdBkSCwyxHB5K4U-1" source="N76Ln_JSzxriDpdFP_38-1" target="xKOTKGOpiuRnV1Tdx6P--0" edge="1">
          <mxGeometry width="50" height="50" relative="1" as="geometry">
            <mxPoint x="530.1600000000001" y="655.3" as="sourcePoint"/>
            <mxPoint x="510" y="590" as="targetPoint"/>
          </mxGeometry>
        </mxCell>
        <mxCell id="rFMUPJMGjhhUsfj9kYwA-2" value="" style="aspect=fixed;html=1;points=[];align=center;image;fontSize=12;image=img/lib/mscae/Database_General.svg;" parent="Arf75LdBkSCwyxHB5K4U-1" vertex="1">
          <mxGeometry x="186.5" y="500" width="67" height="88" as="geometry"/>
        </mxCell>
        <mxCell id="rFMUPJMGjhhUsfj9kYwA-3" value="" style="aspect=fixed;html=1;points=[];align=center;image;fontSize=12;image=img/lib/mscae/Database_General.svg;" parent="Arf75LdBkSCwyxHB5K4U-1" vertex="1">
          <mxGeometry x="602" y="507" width="66" height="86" as="geometry"/>
        </mxCell>
        <mxCell id="rFMUPJMGjhhUsfj9kYwA-4" value="Données Client" style="text;html=1;resizable=0;points=[];autosize=1;align=left;verticalAlign=top;spacingTop=-4;fontSize=15;" parent="Arf75LdBkSCwyxHB5K4U-1" vertex="1">
          <mxGeometry x="170" y="470" width="100" height="10" as="geometry"/>
        </mxCell>
        <mxCell id="rFMUPJMGjhhUsfj9kYwA-5" value="Données Restaurant" style="text;html=1;resizable=0;points=[];autosize=1;align=left;verticalAlign=top;spacingTop=-4;fontSize=15;" parent="Arf75LdBkSCwyxHB5K4U-1" vertex="1">
          <mxGeometry x="560" y="484" width="150" height="20" as="geometry"/>
        </mxCell>
        <mxCell id="rFMUPJMGjhhUsfj9kYwA-6" value="" style="endArrow=classic;startArrow=classic;html=1;fontSize=15;" parent="Arf75LdBkSCwyxHB5K4U-1" edge="1">
          <mxGeometry width="50" height="50" relative="1" as="geometry">
            <mxPoint x="253.5" y="529.5" as="sourcePoint"/>
            <mxPoint x="313.5" y="529.5" as="targetPoint"/>
          </mxGeometry>
        </mxCell>
        <mxCell id="rFMUPJMGjhhUsfj9kYwA-7" value="" style="endArrow=classic;startArrow=classic;html=1;fontSize=15;" parent="Arf75LdBkSCwyxHB5K4U-1" edge="1">
          <mxGeometry width="50" height="50" relative="1" as="geometry">
            <mxPoint x="540" y="544" as="sourcePoint"/>
            <mxPoint x="600" y="544" as="targetPoint"/>
          </mxGeometry>
        </mxCell>
        <mxCell id="0C1SAFtrpvGo9tMCffDE-2" value="LDAP" style="shape=datastore;whiteSpace=wrap;html=1;fontSize=15;" parent="Arf75LdBkSCwyxHB5K4U-1" vertex="1">
          <mxGeometry x="720" y="370" width="60" height="60" as="geometry"/>
        </mxCell>
        <mxCell id="0C1SAFtrpvGo9tMCffDE-3" value="" style="endArrow=block;endFill=1;endSize=6;html=1;fontSize=15;entryX=0;entryY=0;entryDx=200;entryDy=35.5;entryPerimeter=0;exitX=0;exitY=0.3;exitDx=0;exitDy=0;" parent="Arf75LdBkSCwyxHB5K4U-1" source="0C1SAFtrpvGo9tMCffDE-2" target="xKOTKGOpiuRnV1Tdx6P--2" edge="1">
          <mxGeometry width="100" relative="1" as="geometry">
            <mxPoint x="680" y="360" as="sourcePoint"/>
            <mxPoint x="780" y="360" as="targetPoint"/>
          </mxGeometry>
        </mxCell>
        <mxCell id="0C1SAFtrpvGo9tMCffDE-4" value="" style="endArrow=block;endFill=1;endSize=6;html=1;fontSize=15;exitX=0;exitY=0;exitDx=200;exitDy=57;exitPerimeter=0;entryX=0;entryY=0.7;entryDx=0;entryDy=0;" parent="Arf75LdBkSCwyxHB5K4U-1" source="xKOTKGOpiuRnV1Tdx6P--2" target="0C1SAFtrpvGo9tMCffDE-2" edge="1">
          <mxGeometry width="100" relative="1" as="geometry">
            <mxPoint x="670" y="410" as="sourcePoint"/>
            <mxPoint x="720" y="405" as="targetPoint"/>
          </mxGeometry>
        </mxCell>
      </root>
    </mxGraphModel>
  </diagram>
  <diagram id="MNXzi04fr1sy_u2QWTiJ" name="Use Case Général">
    <mxGraphModel dx="2448" dy="1497" grid="1" gridSize="10" guides="1" tooltips="1" connect="1" arrows="1" fold="1" page="1" pageScale="1" pageWidth="1169" pageHeight="827" math="0" shadow="0">
      <root>
        <mxCell id="0"/>
        <mxCell id="1" parent="0"/>
        <mxCell id="viRjNy0WODVmukTZg38G-1" value="" style="rounded=1;whiteSpace=wrap;html=1;fontSize=14;align=center;fillColor=#dae8fc;strokeColor=#6c8ebf;direction=south;movable=0;resizable=0;rotatable=0;deletable=0;editable=0;connectable=0;fontStyle=0" parent="1" vertex="1">
          <mxGeometry x="715" y="35" width="285" height="165" as="geometry"/>
        </mxCell>
        <mxCell id="WP350R45o4TcloDQfKBS-45" value="" style="rounded=1;whiteSpace=wrap;html=1;fontSize=14;align=center;fillColor=#dae8fc;strokeColor=#6c8ebf;direction=south;movable=0;resizable=0;rotatable=0;deletable=0;editable=0;connectable=0;fontStyle=2" parent="1" vertex="1">
          <mxGeometry x="620" y="300" width="430" height="490" as="geometry"/>
        </mxCell>
        <mxCell id="WP350R45o4TcloDQfKBS-10" value="" style="rounded=1;whiteSpace=wrap;html=1;fontSize=14;align=center;fillColor=#dae8fc;strokeColor=#6c8ebf;direction=south;movable=1;resizable=1;rotatable=1;deletable=1;editable=1;connectable=1;fontStyle=0" parent="1" vertex="1">
          <mxGeometry x="90" y="290" width="440" height="495" as="geometry"/>
        </mxCell>
        <mxCell id="WP350R45o4TcloDQfKBS-31" value="" style="rounded=0;whiteSpace=wrap;html=1;fontSize=14;align=center;" parent="1" vertex="1">
          <mxGeometry x="185" y="265" width="230" height="30" as="geometry"/>
        </mxCell>
        <mxCell id="WP350R45o4TcloDQfKBS-8" value="" style="group" parent="1" vertex="1" connectable="0">
          <mxGeometry x="-20" y="-90" width="390" height="100" as="geometry"/>
        </mxCell>
        <mxCell id="WP350R45o4TcloDQfKBS-7" value="" style="rounded=1;whiteSpace=wrap;html=1;fontSize=14;align=center;" parent="WP350R45o4TcloDQfKBS-8" vertex="1">
          <mxGeometry width="380" height="100" as="geometry"/>
        </mxCell>
        <mxCell id="WP350R45o4TcloDQfKBS-1" value="&lt;p style=&quot;font-size: 14px;&quot;&gt;Applicatifs&lt;/p&gt;" style="text;html=1;resizable=0;points=[];autosize=1;align=center;verticalAlign=middle;spacingTop=-4;fontStyle=1;fontSize=14;" parent="WP350R45o4TcloDQfKBS-8" vertex="1">
          <mxGeometry x="20" width="70" height="40" as="geometry"/>
        </mxCell>
        <mxCell id="WP350R45o4TcloDQfKBS-3" value="Site de e-commerce (commande en ligne)" style="text;html=1;resizable=0;points=[];autosize=1;align=left;verticalAlign=top;spacingTop=-4;" parent="WP350R45o4TcloDQfKBS-8" vertex="1">
          <mxGeometry x="10" y="40" width="240" height="20" as="geometry"/>
        </mxCell>
        <mxCell id="WP350R45o4TcloDQfKBS-5" value="Application interne : Suivi commande; Gestion des stocks; Recettes,&amp;nbsp;&lt;br&gt;prise de commande par téléphone" style="text;html=1;resizable=0;points=[];autosize=1;align=left;verticalAlign=top;spacingTop=-4;" parent="WP350R45o4TcloDQfKBS-8" vertex="1">
          <mxGeometry x="10" y="60" width="380" height="30" as="geometry"/>
        </mxCell>
        <mxCell id="WP350R45o4TcloDQfKBS-12" value="&lt;b&gt;&lt;i&gt;Web App e-commerce&lt;/i&gt;&lt;/b&gt;" style="text;html=1;strokeColor=none;fillColor=none;align=center;verticalAlign=middle;whiteSpace=wrap;rounded=0;fontSize=16;" parent="1" vertex="1">
          <mxGeometry x="205" y="270" width="190" height="20" as="geometry"/>
        </mxCell>
        <mxCell id="WP350R45o4TcloDQfKBS-26" value="Client" style="shape=umlActor;verticalLabelPosition=bottom;labelBackgroundColor=#ffffff;verticalAlign=top;html=1;outlineConnect=0;fontSize=14;align=center;" parent="1" vertex="1">
          <mxGeometry x="25" y="300" width="50" height="80" as="geometry"/>
        </mxCell>
        <mxCell id="WP350R45o4TcloDQfKBS-27" value="commander une pizza" style="ellipse;whiteSpace=wrap;html=1;fontSize=14;align=center;" parent="1" vertex="1">
          <mxGeometry x="180" y="425" width="180" height="50" as="geometry"/>
        </mxCell>
        <mxCell id="WP350R45o4TcloDQfKBS-28" value="Lire la carte" style="ellipse;whiteSpace=wrap;html=1;fontSize=14;align=center;" parent="1" vertex="1">
          <mxGeometry x="300" y="305" width="180" height="35" as="geometry"/>
        </mxCell>
        <mxCell id="WP350R45o4TcloDQfKBS-29" value="Payer sa commande" style="ellipse;whiteSpace=wrap;html=1;fontSize=14;align=center;" parent="1" vertex="1">
          <mxGeometry x="135" y="670" width="180" height="50" as="geometry"/>
        </mxCell>
        <mxCell id="WP350R45o4TcloDQfKBS-30" value="s&#39;identifier / s&#39;inscire" style="ellipse;whiteSpace=wrap;html=1;fontSize=14;align=center;" parent="1" vertex="1">
          <mxGeometry x="255" y="360" width="160" height="40" as="geometry"/>
        </mxCell>
        <mxCell id="WP350R45o4TcloDQfKBS-32" value="Pizzaiolo" style="shape=umlActor;verticalLabelPosition=bottom;labelBackgroundColor=#ffffff;verticalAlign=top;html=1;outlineConnect=0;fontSize=14;align=center;" parent="1" vertex="1">
          <mxGeometry x="540" y="300" width="50" height="80" as="geometry"/>
        </mxCell>
        <mxCell id="WP350R45o4TcloDQfKBS-37" value="Lire les commandes" style="ellipse;whiteSpace=wrap;html=1;fontSize=16;align=center;" parent="1" vertex="1">
          <mxGeometry x="300" y="495" width="170" height="40" as="geometry"/>
        </mxCell>
        <mxCell id="WP350R45o4TcloDQfKBS-38" value="" style="endArrow=classic;html=1;fontSize=16;entryX=0.714;entryY=0.025;entryDx=0;entryDy=0;entryPerimeter=0;" parent="1" target="WP350R45o4TcloDQfKBS-37" edge="1">
          <mxGeometry width="50" height="50" relative="1" as="geometry">
            <mxPoint x="550" y="400" as="sourcePoint"/>
            <mxPoint x="630" y="448" as="targetPoint"/>
            <Array as="points"/>
          </mxGeometry>
        </mxCell>
        <mxCell id="WP350R45o4TcloDQfKBS-39" value="" style="endArrow=classic;html=1;fontSize=16;" parent="1" edge="1">
          <mxGeometry width="50" height="50" relative="1" as="geometry">
            <mxPoint x="80" y="350" as="sourcePoint"/>
            <mxPoint x="300" y="320" as="targetPoint"/>
            <Array as="points"/>
          </mxGeometry>
        </mxCell>
        <mxCell id="WP350R45o4TcloDQfKBS-40" value="" style="endArrow=classic;html=1;fontSize=16;entryX=0;entryY=0.5;entryDx=0;entryDy=0;" parent="1" target="WP350R45o4TcloDQfKBS-30" edge="1">
          <mxGeometry width="50" height="50" relative="1" as="geometry">
            <mxPoint x="80" y="360" as="sourcePoint"/>
            <mxPoint x="260" y="360" as="targetPoint"/>
            <Array as="points"/>
          </mxGeometry>
        </mxCell>
        <mxCell id="WP350R45o4TcloDQfKBS-41" value="" style="endArrow=classic;html=1;fontSize=16;entryX=0.098;entryY=0.144;entryDx=0;entryDy=0;entryPerimeter=0;" parent="1" target="WP350R45o4TcloDQfKBS-27" edge="1">
          <mxGeometry width="50" height="50" relative="1" as="geometry">
            <mxPoint x="90" y="370" as="sourcePoint"/>
            <mxPoint x="240" y="450" as="targetPoint"/>
            <Array as="points"/>
          </mxGeometry>
        </mxCell>
        <mxCell id="WP350R45o4TcloDQfKBS-42" value="" style="endArrow=classic;html=1;fontSize=16;" parent="1" target="WP350R45o4TcloDQfKBS-29" edge="1">
          <mxGeometry width="50" height="50" relative="1" as="geometry">
            <mxPoint x="70" y="390" as="sourcePoint"/>
            <mxPoint x="230" y="560" as="targetPoint"/>
            <Array as="points"/>
          </mxGeometry>
        </mxCell>
        <mxCell id="WP350R45o4TcloDQfKBS-43" value="Modifier/Annuler commande" style="ellipse;whiteSpace=wrap;html=1;fontSize=14;align=center;" parent="1" vertex="1">
          <mxGeometry x="180" y="550" width="200" height="45" as="geometry"/>
        </mxCell>
        <mxCell id="WP350R45o4TcloDQfKBS-44" value="" style="endArrow=classic;html=1;fontSize=16;" parent="1" target="WP350R45o4TcloDQfKBS-43" edge="1">
          <mxGeometry width="50" height="50" relative="1" as="geometry">
            <mxPoint x="80" y="380" as="sourcePoint"/>
            <mxPoint x="239.97819602867503" y="670.2431509269225" as="targetPoint"/>
            <Array as="points"/>
          </mxGeometry>
        </mxCell>
        <mxCell id="WP350R45o4TcloDQfKBS-48" value="" style="rounded=0;whiteSpace=wrap;html=1;fontSize=14;align=center;" parent="1" vertex="1">
          <mxGeometry x="715" y="270" width="230" height="30" as="geometry"/>
        </mxCell>
        <mxCell id="WP350R45o4TcloDQfKBS-49" value="&lt;b&gt;&lt;i&gt;Applicatif Boutique&lt;/i&gt;&lt;/b&gt;" style="text;html=1;strokeColor=none;fillColor=none;align=center;verticalAlign=middle;whiteSpace=wrap;rounded=0;fontSize=16;" parent="1" vertex="1">
          <mxGeometry x="731.2380719866071" y="275" width="190" height="20" as="geometry"/>
        </mxCell>
        <mxCell id="WP350R45o4TcloDQfKBS-50" value="Manager" style="shape=umlActor;verticalLabelPosition=bottom;labelBackgroundColor=#ffffff;verticalAlign=top;html=1;outlineConnect=0;fontSize=16;align=center;" parent="1" vertex="1">
          <mxGeometry x="550" y="476" width="50" height="83" as="geometry"/>
        </mxCell>
        <mxCell id="WP350R45o4TcloDQfKBS-53" value="Lire les Recettes" style="ellipse;whiteSpace=wrap;html=1;fontSize=14;align=center;" parent="1" vertex="1">
          <mxGeometry x="700" y="316" width="180" height="38" as="geometry"/>
        </mxCell>
        <mxCell id="WP350R45o4TcloDQfKBS-54" value="Consulter les stocks" style="ellipse;whiteSpace=wrap;html=1;fontSize=16;align=center;" parent="1" vertex="1">
          <mxGeometry x="660" y="740" width="180" height="35" as="geometry"/>
        </mxCell>
        <mxCell id="WP350R45o4TcloDQfKBS-55" value="" style="endArrow=classic;html=1;fontSize=16;" parent="1" edge="1">
          <mxGeometry width="50" height="50" relative="1" as="geometry">
            <mxPoint x="590" y="359" as="sourcePoint"/>
            <mxPoint x="710" y="345" as="targetPoint"/>
            <Array as="points"/>
          </mxGeometry>
        </mxCell>
        <mxCell id="WP350R45o4TcloDQfKBS-56" value="&lt;font style=&quot;font-size: 14px&quot;&gt;Mettre à jour statut commande&lt;/font&gt;" style="ellipse;whiteSpace=wrap;html=1;fontSize=16;align=center;" parent="1" vertex="1">
          <mxGeometry x="706" y="400" width="220" height="40" as="geometry"/>
        </mxCell>
        <mxCell id="WP350R45o4TcloDQfKBS-57" value="" style="endArrow=classic;html=1;fontSize=16;" parent="1" edge="1">
          <mxGeometry width="50" height="50" relative="1" as="geometry">
            <mxPoint x="600" y="380" as="sourcePoint"/>
            <mxPoint x="720" y="430" as="targetPoint"/>
          </mxGeometry>
        </mxCell>
        <mxCell id="WP350R45o4TcloDQfKBS-59" value="" style="endArrow=classic;html=1;fontSize=16;" parent="1" target="WP350R45o4TcloDQfKBS-54" edge="1">
          <mxGeometry width="50" height="50" relative="1" as="geometry">
            <mxPoint x="590" y="590" as="sourcePoint"/>
            <mxPoint x="740" y="600" as="targetPoint"/>
          </mxGeometry>
        </mxCell>
        <mxCell id="WP350R45o4TcloDQfKBS-60" value="Consulter l&#39;historique des commandes" style="ellipse;whiteSpace=wrap;html=1;fontSize=16;align=center;" parent="1" vertex="1">
          <mxGeometry x="706" y="542.5" width="240" height="60" as="geometry"/>
        </mxCell>
        <mxCell id="WP350R45o4TcloDQfKBS-61" value="Employé" style="shape=umlActor;verticalLabelPosition=bottom;labelBackgroundColor=#ffffff;verticalAlign=top;html=1;outlineConnect=0;fontSize=16;align=center;" parent="1" vertex="1">
          <mxGeometry x="1080" y="611" width="40" height="66" as="geometry"/>
        </mxCell>
        <mxCell id="WP350R45o4TcloDQfKBS-64" value="" style="endArrow=classic;html=1;fontSize=16;" parent="1" edge="1">
          <mxGeometry width="50" height="50" relative="1" as="geometry">
            <mxPoint x="600" y="490" as="sourcePoint"/>
            <mxPoint x="710" y="560" as="targetPoint"/>
          </mxGeometry>
        </mxCell>
        <mxCell id="WP350R45o4TcloDQfKBS-65" value="Enregistrer commande locale" style="ellipse;whiteSpace=wrap;html=1;fontSize=16;align=center;" parent="1" vertex="1">
          <mxGeometry x="822" y="453" width="208" height="67" as="geometry"/>
        </mxCell>
        <mxCell id="WP350R45o4TcloDQfKBS-67" value="" style="endArrow=classic;html=1;fontSize=16;entryX=1;entryY=1;entryDx=0;entryDy=0;" parent="1" target="WP350R45o4TcloDQfKBS-65" edge="1">
          <mxGeometry width="50" height="50" relative="1" as="geometry">
            <mxPoint x="1070" y="640" as="sourcePoint"/>
            <mxPoint x="1030" y="560" as="targetPoint"/>
          </mxGeometry>
        </mxCell>
        <mxCell id="IswcSaj1MvI52YdDS3wO-2" value="Ajout/Suppression de pizzas au menu" style="ellipse;whiteSpace=wrap;html=1;fontSize=16;align=center;" parent="1" vertex="1">
          <mxGeometry x="726" y="637.5" width="228" height="67" as="geometry"/>
        </mxCell>
        <mxCell id="8kkCwrRcvmq9vK6ddV55-1" value="" style="endArrow=classic;html=1;fontSize=16;entryX=0.032;entryY=0.233;entryDx=0;entryDy=0;entryPerimeter=0;" parent="1" target="IswcSaj1MvI52YdDS3wO-2" edge="1">
          <mxGeometry width="50" height="50" relative="1" as="geometry">
            <mxPoint x="600" y="530" as="sourcePoint"/>
            <mxPoint x="720" y="570" as="targetPoint"/>
          </mxGeometry>
        </mxCell>
        <mxCell id="viRjNy0WODVmukTZg38G-3" value="" style="rounded=0;whiteSpace=wrap;html=1;fontSize=14;align=center;" parent="1" vertex="1">
          <mxGeometry x="735" y="45" width="230" height="30" as="geometry"/>
        </mxCell>
        <mxCell id="viRjNy0WODVmukTZg38G-4" value="&lt;b&gt;&lt;i&gt;Applicatif Livraison&lt;/i&gt;&lt;/b&gt;" style="text;html=1;strokeColor=none;fillColor=none;align=center;verticalAlign=middle;whiteSpace=wrap;rounded=0;fontSize=16;" parent="1" vertex="1">
          <mxGeometry x="755.2380719866071" y="50" width="190" height="20" as="geometry"/>
        </mxCell>
        <mxCell id="viRjNy0WODVmukTZg38G-5" value="Livreur" style="shape=umlActor;verticalLabelPosition=bottom;labelBackgroundColor=#ffffff;verticalAlign=top;html=1;outlineConnect=0;fontSize=16;align=center;" parent="1" vertex="1">
          <mxGeometry x="1100" y="140" width="40" height="66" as="geometry"/>
        </mxCell>
        <mxCell id="viRjNy0WODVmukTZg38G-12" value="" style="endArrow=none;html=1;" parent="1" edge="1">
          <mxGeometry width="50" height="50" relative="1" as="geometry">
            <mxPoint x="910" y="400" as="sourcePoint"/>
            <mxPoint x="1080" y="200" as="targetPoint"/>
          </mxGeometry>
        </mxCell>
        <mxCell id="viRjNy0WODVmukTZg38G-13" value="&lt;font style=&quot;font-size: 14px&quot;&gt;Livrer une commande&lt;/font&gt;" style="ellipse;whiteSpace=wrap;html=1;" parent="1" vertex="1">
          <mxGeometry x="767.5" y="110" width="165" height="50" as="geometry"/>
        </mxCell>
        <mxCell id="GK0WRVZe4CSW7Pe3xJ0g-3" value="" style="endArrow=classic;html=1;fontSize=15;" parent="1" edge="1">
          <mxGeometry width="50" height="50" relative="1" as="geometry">
            <mxPoint x="1090" y="180" as="sourcePoint"/>
            <mxPoint x="940" y="140" as="targetPoint"/>
          </mxGeometry>
        </mxCell>
        <mxCell id="GK0WRVZe4CSW7Pe3xJ0g-4" value="" style="rounded=1;whiteSpace=wrap;html=1;fontSize=14;align=center;fillColor=#dae8fc;strokeColor=#6c8ebf;direction=south;movable=1;resizable=1;rotatable=1;deletable=1;editable=1;connectable=1;fontStyle=0" parent="1" vertex="1">
          <mxGeometry x="300" y="45" width="330" height="215" as="geometry"/>
        </mxCell>
        <mxCell id="w2cUDMfp2DR0XOz2rIP8-1" value="&lt;font style=&quot;font-size: 16px&quot;&gt;&lt;b&gt;&lt;i&gt;BackOffice / BI&lt;/i&gt;&lt;/b&gt;&lt;/font&gt;" style="rounded=0;whiteSpace=wrap;html=1;fontSize=14;align=center;" parent="1" vertex="1">
          <mxGeometry x="351" y="50" width="183" height="30" as="geometry"/>
        </mxCell>
        <mxCell id="58iHhbL34LziKlzWiMvk-3" value="&lt;font style=&quot;font-size: 16px&quot;&gt;s&#39;identifier&amp;nbsp;&lt;/font&gt;" style="ellipse;whiteSpace=wrap;html=1;fontSize=14;align=center;" parent="1" vertex="1">
          <mxGeometry x="351" y="98" width="139" height="53" as="geometry"/>
        </mxCell>
        <mxCell id="58iHhbL34LziKlzWiMvk-4" value="Lister les données de ventes" style="ellipse;whiteSpace=wrap;html=1;fontSize=14;align=center;" parent="1" vertex="1">
          <mxGeometry x="360" y="173" width="210" height="47" as="geometry"/>
        </mxCell>
        <mxCell id="58iHhbL34LziKlzWiMvk-6" value="Manager" style="shape=umlActor;verticalLabelPosition=bottom;labelBackgroundColor=#ffffff;verticalAlign=top;html=1;outlineConnect=0;fontSize=16;align=center;" parent="1" vertex="1">
          <mxGeometry x="135" y="77" width="50" height="83" as="geometry"/>
        </mxCell>
        <mxCell id="58iHhbL34LziKlzWiMvk-7" value="" style="endArrow=classic;html=1;fontSize=15;entryX=0;entryY=0.5;entryDx=0;entryDy=0;" parent="1" target="58iHhbL34LziKlzWiMvk-3" edge="1">
          <mxGeometry width="50" height="50" relative="1" as="geometry">
            <mxPoint x="210" y="110" as="sourcePoint"/>
            <mxPoint x="260" y="60" as="targetPoint"/>
          </mxGeometry>
        </mxCell>
        <mxCell id="58iHhbL34LziKlzWiMvk-8" value="" style="endArrow=classic;html=1;fontSize=15;entryX=0;entryY=0.5;entryDx=0;entryDy=0;" parent="1" target="58iHhbL34LziKlzWiMvk-4" edge="1">
          <mxGeometry width="50" height="50" relative="1" as="geometry">
            <mxPoint x="210" y="140" as="sourcePoint"/>
            <mxPoint x="260" y="140" as="targetPoint"/>
          </mxGeometry>
        </mxCell>
      </root>
    </mxGraphModel>
  </diagram>
  <diagram id="OjRM8z9cJ1ZAFw9N_QNG" name="Use Case detaillé &quot;passer une commande&quot;">
    <mxGraphModel dx="1790" dy="938" grid="1" gridSize="10" guides="1" tooltips="1" connect="1" arrows="1" fold="1" page="1" pageScale="1" pageWidth="827" pageHeight="1169" math="0" shadow="0">
      <root>
        <mxCell id="lMogSQis_lPnUItZ0-x9-0"/>
        <mxCell id="lMogSQis_lPnUItZ0-x9-1" parent="lMogSQis_lPnUItZ0-x9-0"/>
        <mxCell id="QHZi4LVmBb6nzwBVAOWB-7" value="" style="rounded=1;whiteSpace=wrap;html=1;fontSize=14;align=center;fillColor=#dae8fc;strokeColor=#6c8ebf;direction=south;movable=0;resizable=0;rotatable=0;deletable=0;editable=0;connectable=0;fontStyle=2" parent="lMogSQis_lPnUItZ0-x9-1" vertex="1">
          <mxGeometry x="220" y="12.5" width="520" height="760" as="geometry"/>
        </mxCell>
        <mxCell id="QHZi4LVmBb6nzwBVAOWB-0" value="Payer sa commande" style="ellipse;whiteSpace=wrap;html=1;fontSize=14;align=center;" parent="lMogSQis_lPnUItZ0-x9-1" vertex="1">
          <mxGeometry x="369.83331298828125" y="90" width="180" height="50" as="geometry"/>
        </mxCell>
        <mxCell id="QHZi4LVmBb6nzwBVAOWB-1" value="Modifier Commande" style="ellipse;whiteSpace=wrap;html=1;fontSize=14;align=center;" parent="lMogSQis_lPnUItZ0-x9-1" vertex="1">
          <mxGeometry x="295" y="550" width="180" height="40" as="geometry"/>
        </mxCell>
        <mxCell id="QHZi4LVmBb6nzwBVAOWB-2" value="Constitituer un panier" style="ellipse;whiteSpace=wrap;html=1;fontSize=16;align=center;" parent="lMogSQis_lPnUItZ0-x9-1" vertex="1">
          <mxGeometry x="550" y="205" width="170" height="40" as="geometry"/>
        </mxCell>
        <mxCell id="QHZi4LVmBb6nzwBVAOWB-3" value="Enregistrer Commande" style="ellipse;whiteSpace=wrap;html=1;fontSize=14;align=center;" parent="lMogSQis_lPnUItZ0-x9-1" vertex="1">
          <mxGeometry x="260" y="195" width="180" height="50" as="geometry"/>
        </mxCell>
        <mxCell id="QHZi4LVmBb6nzwBVAOWB-4" value="S&#39;authentifier" style="ellipse;whiteSpace=wrap;html=1;fontSize=14;align=center;" parent="lMogSQis_lPnUItZ0-x9-1" vertex="1">
          <mxGeometry x="310" y="417.5" width="160" height="40" as="geometry"/>
        </mxCell>
        <mxCell id="QHZi4LVmBb6nzwBVAOWB-5" value="Lire la carte" style="ellipse;whiteSpace=wrap;html=1;fontSize=14;align=center;" parent="lMogSQis_lPnUItZ0-x9-1" vertex="1">
          <mxGeometry x="310" y="330" width="180" height="35" as="geometry"/>
        </mxCell>
        <mxCell id="QHZi4LVmBb6nzwBVAOWB-6" value="&lt;b&gt;&lt;i&gt;Interface Client&lt;/i&gt;&lt;/b&gt;" style="text;html=1;strokeColor=none;fillColor=none;align=center;verticalAlign=middle;whiteSpace=wrap;rounded=0;fontSize=16;" parent="lMogSQis_lPnUItZ0-x9-1" vertex="1">
          <mxGeometry x="405" y="30" width="190" height="20" as="geometry"/>
        </mxCell>
        <mxCell id="2Q_Dox02deGlabNsgdzl-0" value="Client" style="shape=umlActor;verticalLabelPosition=bottom;labelBackgroundColor=#ffffff;verticalAlign=top;html=1;outlineConnect=0;fontSize=14;align=center;" parent="lMogSQis_lPnUItZ0-x9-1" vertex="1">
          <mxGeometry x="40" y="370" width="90" height="120" as="geometry"/>
        </mxCell>
        <mxCell id="2Q_Dox02deGlabNsgdzl-1" value="S&#39;inscrire" style="ellipse;whiteSpace=wrap;html=1;fontSize=14;align=center;" parent="lMogSQis_lPnUItZ0-x9-1" vertex="1">
          <mxGeometry x="520" y="470" width="160" height="40" as="geometry"/>
        </mxCell>
        <mxCell id="2Q_Dox02deGlabNsgdzl-2" value="Supprimer commande" style="ellipse;whiteSpace=wrap;html=1;fontSize=14;align=center;" parent="lMogSQis_lPnUItZ0-x9-1" vertex="1">
          <mxGeometry x="350" y="645" width="180" height="40" as="geometry"/>
        </mxCell>
        <mxCell id="2Q_Dox02deGlabNsgdzl-3" value="" style="endArrow=none;html=1;fontSize=16;fontColor=#35FF0D;" parent="lMogSQis_lPnUItZ0-x9-1" edge="1">
          <mxGeometry width="50" height="50" relative="1" as="geometry">
            <mxPoint x="130" y="410" as="sourcePoint"/>
            <mxPoint x="310" y="360" as="targetPoint"/>
          </mxGeometry>
        </mxCell>
        <mxCell id="2Q_Dox02deGlabNsgdzl-6" value="" style="endArrow=none;html=1;fontSize=16;fontColor=#35FF0D;" parent="lMogSQis_lPnUItZ0-x9-1" edge="1">
          <mxGeometry width="50" height="50" relative="1" as="geometry">
            <mxPoint x="140" y="450" as="sourcePoint"/>
            <mxPoint x="300" y="440" as="targetPoint"/>
          </mxGeometry>
        </mxCell>
        <mxCell id="2Q_Dox02deGlabNsgdzl-8" value="" style="endArrow=none;html=1;fontSize=16;fontColor=#35FF0D;" parent="lMogSQis_lPnUItZ0-x9-1" edge="1">
          <mxGeometry width="50" height="50" relative="1" as="geometry">
            <mxPoint x="150" y="470" as="sourcePoint"/>
            <mxPoint x="510" y="490" as="targetPoint"/>
          </mxGeometry>
        </mxCell>
        <mxCell id="2Q_Dox02deGlabNsgdzl-9" value="&lt;font color=&quot;#000000&quot; style=&quot;font-size: 14px&quot;&gt;&amp;lt;&amp;lt;Include&amp;gt;&amp;gt;&lt;/font&gt;" style="endArrow=open;endSize=12;dashed=1;html=1;fontSize=14;fontColor=#35FF0D;" parent="lMogSQis_lPnUItZ0-x9-1" edge="1">
          <mxGeometry x="-0.082" y="4" width="160" relative="1" as="geometry">
            <mxPoint x="425" y="640" as="sourcePoint"/>
            <mxPoint x="365" y="590" as="targetPoint"/>
            <mxPoint as="offset"/>
          </mxGeometry>
        </mxCell>
        <mxCell id="2Q_Dox02deGlabNsgdzl-13" value="&lt;font color=&quot;#000000&quot; style=&quot;font-size: 14px&quot;&gt;&amp;lt;&amp;lt;Extends&amp;gt;&amp;gt;&lt;/font&gt;" style="endArrow=open;endSize=12;dashed=1;html=1;fontSize=14;fontColor=#35FF0D;entryX=1;entryY=0.5;entryDx=0;entryDy=0;" parent="lMogSQis_lPnUItZ0-x9-1" source="2Q_Dox02deGlabNsgdzl-1" target="QHZi4LVmBb6nzwBVAOWB-4" edge="1">
          <mxGeometry x="-0.474" y="-15" width="160" relative="1" as="geometry">
            <mxPoint x="560" y="400" as="sourcePoint"/>
            <mxPoint x="470" y="457.5" as="targetPoint"/>
            <Array as="points"/>
            <mxPoint as="offset"/>
          </mxGeometry>
        </mxCell>
        <mxCell id="2Q_Dox02deGlabNsgdzl-16" value="&lt;font color=&quot;#000000&quot; style=&quot;font-size: 14px&quot;&gt;&amp;lt;&amp;lt;Include&amp;gt;&amp;gt;&lt;/font&gt;" style="endArrow=open;endSize=12;dashed=1;html=1;fontSize=14;fontColor=#35FF0D;entryX=0.5;entryY=0;entryDx=0;entryDy=0;" parent="lMogSQis_lPnUItZ0-x9-1" target="QHZi4LVmBb6nzwBVAOWB-5" edge="1">
          <mxGeometry x="-0.0363" width="160" relative="1" as="geometry">
            <mxPoint x="380" y="250" as="sourcePoint"/>
            <mxPoint x="530" y="280" as="targetPoint"/>
            <mxPoint as="offset"/>
          </mxGeometry>
        </mxCell>
        <mxCell id="2Q_Dox02deGlabNsgdzl-17" value="Indiquer quantité souhaitée" style="ellipse;whiteSpace=wrap;html=1;fontSize=14;align=center;" parent="lMogSQis_lPnUItZ0-x9-1" vertex="1">
          <mxGeometry x="480" y="280" width="200" height="35" as="geometry"/>
        </mxCell>
        <mxCell id="2Q_Dox02deGlabNsgdzl-18" value="&lt;font color=&quot;#000000&quot; style=&quot;font-size: 14px&quot;&gt;&amp;lt;&amp;lt;Include&amp;gt;&amp;gt;&lt;/font&gt;" style="endArrow=open;endSize=12;dashed=1;html=1;fontSize=14;fontColor=#35FF0D;entryX=0.103;entryY=0.067;entryDx=0;entryDy=0;entryPerimeter=0;" parent="lMogSQis_lPnUItZ0-x9-1" target="2Q_Dox02deGlabNsgdzl-17" edge="1">
          <mxGeometry x="-0.203" y="-7" width="160" relative="1" as="geometry">
            <mxPoint x="440" y="230" as="sourcePoint"/>
            <mxPoint x="480" y="291" as="targetPoint"/>
            <mxPoint x="-1" as="offset"/>
          </mxGeometry>
        </mxCell>
        <mxCell id="LlmXYH5qIcbogxWA6GS5-0" value="&lt;font color=&quot;#000000&quot; style=&quot;font-size: 14px&quot;&gt;&amp;lt;&amp;lt;Include&amp;gt;&amp;gt;&lt;/font&gt;" style="endArrow=open;endSize=12;dashed=1;html=1;fontSize=14;fontColor=#35FF0D;exitX=1;exitY=0.5;exitDx=0;exitDy=0;entryX=0;entryY=0.5;entryDx=0;entryDy=0;" parent="lMogSQis_lPnUItZ0-x9-1" source="QHZi4LVmBb6nzwBVAOWB-3" target="QHZi4LVmBb6nzwBVAOWB-2" edge="1">
          <mxGeometry x="0.0804" y="13" width="160" relative="1" as="geometry">
            <mxPoint x="480" y="229" as="sourcePoint"/>
            <mxPoint x="520" y="290" as="targetPoint"/>
            <mxPoint as="offset"/>
          </mxGeometry>
        </mxCell>
        <mxCell id="LlmXYH5qIcbogxWA6GS5-3" value="&lt;font color=&quot;#000000&quot; style=&quot;font-size: 14px&quot;&gt;&amp;lt;&amp;lt;Include&amp;gt;&amp;gt;&lt;/font&gt;" style="endArrow=open;endSize=12;dashed=1;html=1;fontSize=14;fontColor=#35FF0D;entryX=0.226;entryY=0.966;entryDx=0;entryDy=0;entryPerimeter=0;" parent="lMogSQis_lPnUItZ0-x9-1" target="QHZi4LVmBb6nzwBVAOWB-0" edge="1">
          <mxGeometry x="-0.0363" width="160" relative="1" as="geometry">
            <mxPoint x="360" y="190" as="sourcePoint"/>
            <mxPoint x="400" y="150" as="targetPoint"/>
            <mxPoint as="offset"/>
          </mxGeometry>
        </mxCell>
        <mxCell id="LlmXYH5qIcbogxWA6GS5-4" value="" style="endArrow=none;html=1;fontSize=16;fontColor=#35FF0D;entryX=0.03;entryY=0.787;entryDx=0;entryDy=0;entryPerimeter=0;" parent="lMogSQis_lPnUItZ0-x9-1" edge="1">
          <mxGeometry width="50" height="50" relative="1" as="geometry">
            <mxPoint x="130" y="360" as="sourcePoint"/>
            <mxPoint x="275.4000000000001" y="244.35000000000002" as="targetPoint"/>
          </mxGeometry>
        </mxCell>
        <mxCell id="LlmXYH5qIcbogxWA6GS5-5" value="" style="endArrow=none;html=1;fontSize=16;fontColor=#35FF0D;" parent="lMogSQis_lPnUItZ0-x9-1" edge="1">
          <mxGeometry width="50" height="50" relative="1" as="geometry">
            <mxPoint x="160" y="500" as="sourcePoint"/>
            <mxPoint x="300" y="550" as="targetPoint"/>
          </mxGeometry>
        </mxCell>
        <mxCell id="LlmXYH5qIcbogxWA6GS5-8" value="" style="endArrow=none;html=1;fontSize=16;fontColor=#35FF0D;" parent="lMogSQis_lPnUItZ0-x9-1" edge="1">
          <mxGeometry width="50" height="50" relative="1" as="geometry">
            <mxPoint x="130" y="520" as="sourcePoint"/>
            <mxPoint x="350" y="650" as="targetPoint"/>
          </mxGeometry>
        </mxCell>
      </root>
    </mxGraphModel>
  </diagram>
  <diagram id="13iML4ecjf_PSglqfJxp" name="Page-4">
    <mxGraphModel dx="895" dy="469" grid="1" gridSize="10" guides="1" tooltips="1" connect="1" arrows="1" fold="1" page="1" pageScale="1" pageWidth="1169" pageHeight="827" math="0" shadow="0">
      <root>
        <mxCell id="vhGQFB2FIMmv0ZNB7dhV-0"/>
        <mxCell id="vhGQFB2FIMmv0ZNB7dhV-1" parent="vhGQFB2FIMmv0ZNB7dhV-0"/>
        <mxCell id="Nz-MjGE0nzK7YT5tCalB-0" value="" style="rounded=1;whiteSpace=wrap;html=1;fontSize=14;align=center;fillColor=#dae8fc;strokeColor=#6c8ebf;direction=south;movable=0;resizable=0;rotatable=0;deletable=0;editable=0;connectable=0;fontStyle=2" parent="vhGQFB2FIMmv0ZNB7dhV-1" vertex="1">
          <mxGeometry x="359.5" y="100" width="450" height="690" as="geometry"/>
        </mxCell>
        <mxCell id="Cs3rjP6lUCYFEQ3PZd2--1" value="&lt;font style=&quot;font-size: 13px&quot;&gt;Passer une commande&lt;/font&gt;" style="ellipse;whiteSpace=wrap;html=1;" parent="vhGQFB2FIMmv0ZNB7dhV-1" vertex="1">
          <mxGeometry x="440" y="180" width="150" height="50" as="geometry"/>
        </mxCell>
        <mxCell id="Cs3rjP6lUCYFEQ3PZd2--2" value="&lt;span style=&quot;font-size: 13px&quot;&gt;Gérer une commande&lt;/span&gt;" style="ellipse;whiteSpace=wrap;html=1;" parent="vhGQFB2FIMmv0ZNB7dhV-1" vertex="1">
          <mxGeometry x="510" y="300" width="140" height="50" as="geometry"/>
        </mxCell>
        <mxCell id="Cs3rjP6lUCYFEQ3PZd2--3" value="Client" style="shape=umlActor;verticalLabelPosition=bottom;labelBackgroundColor=#ffffff;verticalAlign=top;html=1;outlineConnect=0;" parent="vhGQFB2FIMmv0ZNB7dhV-1" vertex="1">
          <mxGeometry x="230" y="205" width="30" height="60" as="geometry"/>
        </mxCell>
        <mxCell id="Cs3rjP6lUCYFEQ3PZd2--6" value="Pizzaiolo" style="shape=umlActor;verticalLabelPosition=bottom;labelBackgroundColor=#ffffff;verticalAlign=top;html=1;outlineConnect=0;" parent="vhGQFB2FIMmv0ZNB7dhV-1" vertex="1">
          <mxGeometry x="245" y="310" width="30" height="60" as="geometry"/>
        </mxCell>
        <mxCell id="Cs3rjP6lUCYFEQ3PZd2--9" value="Employé" style="shape=umlActor;verticalLabelPosition=bottom;labelBackgroundColor=#ffffff;verticalAlign=top;html=1;outlineConnect=0;" parent="vhGQFB2FIMmv0ZNB7dhV-1" vertex="1">
          <mxGeometry x="900" y="210" width="30" height="60" as="geometry"/>
        </mxCell>
        <mxCell id="Cs3rjP6lUCYFEQ3PZd2--10" value="Livreur" style="shape=umlActor;verticalLabelPosition=bottom;labelBackgroundColor=#ffffff;verticalAlign=top;html=1;outlineConnect=0;" parent="vhGQFB2FIMmv0ZNB7dhV-1" vertex="1">
          <mxGeometry x="900" y="325" width="30" height="60" as="geometry"/>
        </mxCell>
        <mxCell id="Cs3rjP6lUCYFEQ3PZd2--13" value="Manager" style="shape=umlActor;verticalLabelPosition=bottom;labelBackgroundColor=#ffffff;verticalAlign=top;html=1;outlineConnect=0;" parent="vhGQFB2FIMmv0ZNB7dhV-1" vertex="1">
          <mxGeometry x="885" y="440" width="30" height="60" as="geometry"/>
        </mxCell>
        <mxCell id="Cs3rjP6lUCYFEQ3PZd2--14" value="" style="endArrow=none;html=1;" parent="vhGQFB2FIMmv0ZNB7dhV-1" edge="1">
          <mxGeometry width="50" height="50" relative="1" as="geometry">
            <mxPoint x="290" y="340" as="sourcePoint"/>
            <mxPoint x="500" y="330" as="targetPoint"/>
          </mxGeometry>
        </mxCell>
        <mxCell id="Cs3rjP6lUCYFEQ3PZd2--15" value="" style="endArrow=none;html=1;exitX=1;exitY=0.5;exitDx=0;exitDy=0;" parent="vhGQFB2FIMmv0ZNB7dhV-1" source="Nk9I5fB1LMCLJw6spBXu-0" edge="1">
          <mxGeometry width="50" height="50" relative="1" as="geometry">
            <mxPoint x="660" y="330" as="sourcePoint"/>
            <mxPoint x="885" y="355" as="targetPoint"/>
          </mxGeometry>
        </mxCell>
        <mxCell id="Cs3rjP6lUCYFEQ3PZd2--16" value="" style="endArrow=none;html=1;" parent="vhGQFB2FIMmv0ZNB7dhV-1" edge="1">
          <mxGeometry width="50" height="50" relative="1" as="geometry">
            <mxPoint x="650" y="310" as="sourcePoint"/>
            <mxPoint x="880" y="250" as="targetPoint"/>
          </mxGeometry>
        </mxCell>
        <mxCell id="Cs3rjP6lUCYFEQ3PZd2--17" value="" style="endArrow=none;html=1;" parent="vhGQFB2FIMmv0ZNB7dhV-1" edge="1">
          <mxGeometry width="50" height="50" relative="1" as="geometry">
            <mxPoint x="280" y="230" as="sourcePoint"/>
            <mxPoint x="430" y="210" as="targetPoint"/>
          </mxGeometry>
        </mxCell>
        <mxCell id="Nk9I5fB1LMCLJw6spBXu-0" value="&lt;span style=&quot;font-size: 13px&quot;&gt;Livrer une commande&lt;/span&gt;" style="ellipse;whiteSpace=wrap;html=1;" parent="vhGQFB2FIMmv0ZNB7dhV-1" vertex="1">
          <mxGeometry x="500" y="450" width="140" height="50" as="geometry"/>
        </mxCell>
        <mxCell id="Nk9I5fB1LMCLJw6spBXu-1" value="" style="endArrow=none;html=1;" parent="vhGQFB2FIMmv0ZNB7dhV-1" edge="1">
          <mxGeometry width="50" height="50" relative="1" as="geometry">
            <mxPoint x="650" y="330" as="sourcePoint"/>
            <mxPoint x="870" y="470" as="targetPoint"/>
          </mxGeometry>
        </mxCell>
      </root>
    </mxGraphModel>
  </diagram>
  <diagram id="j4Z8rjBDjFLUuuC_IwQv" name="Workflows &quot;Authent&quot;">
    <mxGraphModel dx="895" dy="469" grid="1" gridSize="5" guides="1" tooltips="1" connect="1" arrows="1" fold="1" page="1" pageScale="1" pageWidth="1169" pageHeight="827" math="0" shadow="0">
      <root>
        <mxCell id="i2BeWmiV6soi__xf4dNW-0"/>
        <mxCell id="i2BeWmiV6soi__xf4dNW-1" parent="i2BeWmiV6soi__xf4dNW-0"/>
        <mxCell id="z9Ic1R9GKJpyGlVaEFm--0" value="" style="shape=ext;double=1;rounded=1;whiteSpace=wrap;html=1;fontSize=15;movable=0;resizable=0;rotatable=0;deletable=0;editable=0;connectable=0;" parent="i2BeWmiV6soi__xf4dNW-1" vertex="1">
          <mxGeometry x="58" y="45" width="710" height="320" as="geometry"/>
        </mxCell>
        <mxCell id="wQOptLcu3LgtEnf7tLEl-3" value="" style="ellipse;html=1;shape=startState;fillColor=#000000;strokeColor=#ff0000;" parent="i2BeWmiV6soi__xf4dNW-1" vertex="1">
          <mxGeometry x="175" y="10" width="30" height="30" as="geometry"/>
        </mxCell>
        <mxCell id="wQOptLcu3LgtEnf7tLEl-4" value="" style="edgeStyle=orthogonalEdgeStyle;html=1;verticalAlign=bottom;endArrow=open;endSize=8;strokeColor=#ff0000;" parent="i2BeWmiV6soi__xf4dNW-1" edge="1">
          <mxGeometry relative="1" as="geometry">
            <mxPoint x="190" y="90" as="targetPoint"/>
            <mxPoint x="190" y="40" as="sourcePoint"/>
          </mxGeometry>
        </mxCell>
        <mxCell id="K_hCBp15K7QT1JjtjepA-0" value="Saisir login et mot de passe" style="rounded=1;whiteSpace=wrap;html=1;arcSize=40;fontColor=#000000;fillColor=#ffffc0;strokeColor=#ff0000;" parent="i2BeWmiV6soi__xf4dNW-1" vertex="1">
          <mxGeometry x="320" y="170" width="120" height="40" as="geometry"/>
        </mxCell>
        <mxCell id="K_hCBp15K7QT1JjtjepA-1" value="" style="edgeStyle=orthogonalEdgeStyle;html=1;verticalAlign=bottom;endArrow=open;endSize=8;strokeColor=#ff0000;" parent="i2BeWmiV6soi__xf4dNW-1" source="K_hCBp15K7QT1JjtjepA-0" edge="1">
          <mxGeometry relative="1" as="geometry">
            <mxPoint x="380" y="235" as="targetPoint"/>
            <Array as="points">
              <mxPoint x="380" y="220"/>
              <mxPoint x="380" y="220"/>
            </Array>
          </mxGeometry>
        </mxCell>
        <mxCell id="K_hCBp15K7QT1JjtjepA-2" value="&lt;font size=&quot;1&quot;&gt;vérification&lt;/font&gt;" style="rhombus;whiteSpace=wrap;html=1;fillColor=#ffffc0;strokeColor=#ff0000;" parent="i2BeWmiV6soi__xf4dNW-1" vertex="1">
          <mxGeometry x="340" y="235" width="80" height="40" as="geometry"/>
        </mxCell>
        <mxCell id="K_hCBp15K7QT1JjtjepA-3" value="&lt;font style=&quot;font-size: 9px&quot;&gt;Vérification&amp;nbsp;&lt;br&gt;non réussie&lt;/font&gt;" style="edgeStyle=orthogonalEdgeStyle;html=1;align=left;verticalAlign=bottom;endArrow=open;endSize=8;strokeColor=#ff0000;entryX=0.5;entryY=0;entryDx=0;entryDy=0;" parent="i2BeWmiV6soi__xf4dNW-1" target="K_hCBp15K7QT1JjtjepA-0" edge="1">
          <mxGeometry x="-1" y="7" relative="1" as="geometry">
            <mxPoint x="385" y="110" as="targetPoint"/>
            <mxPoint x="420" y="255" as="sourcePoint"/>
            <Array as="points">
              <mxPoint x="540" y="255"/>
              <mxPoint x="540" y="115"/>
              <mxPoint x="380" y="115"/>
            </Array>
            <mxPoint x="-5" y="2" as="offset"/>
          </mxGeometry>
        </mxCell>
        <mxCell id="K_hCBp15K7QT1JjtjepA-4" value="&lt;font style=&quot;font-size: 9px&quot;&gt;Vérification réussie&lt;/font&gt;" style="edgeStyle=orthogonalEdgeStyle;html=1;align=left;verticalAlign=top;endArrow=open;endSize=8;strokeColor=#ff0000;entryX=0.5;entryY=0;entryDx=0;entryDy=0;" parent="i2BeWmiV6soi__xf4dNW-1" source="K_hCBp15K7QT1JjtjepA-2" target="W3sUU0FEQkod-V1EuSxA-0" edge="1">
          <mxGeometry x="-0.1852" y="-91" relative="1" as="geometry">
            <mxPoint x="380" y="300" as="targetPoint"/>
            <Array as="points"/>
            <mxPoint x="1" y="-15" as="offset"/>
          </mxGeometry>
        </mxCell>
        <mxCell id="C5bLut2PyVihQ1xD9vGi-4" value="Choisir de s&#39;identifier" style="rounded=1;whiteSpace=wrap;html=1;arcSize=40;fontColor=#000000;fillColor=#ffffc0;strokeColor=#ff0000;" parent="i2BeWmiV6soi__xf4dNW-1" vertex="1">
          <mxGeometry x="130" y="90" width="120" height="40" as="geometry"/>
        </mxCell>
        <mxCell id="C5bLut2PyVihQ1xD9vGi-5" value="" style="edgeStyle=orthogonalEdgeStyle;html=1;verticalAlign=bottom;endArrow=open;endSize=8;strokeColor=#ff0000;entryX=0.5;entryY=0;entryDx=0;entryDy=0;" parent="i2BeWmiV6soi__xf4dNW-1" source="C5bLut2PyVihQ1xD9vGi-4" target="C5bLut2PyVihQ1xD9vGi-6" edge="1">
          <mxGeometry relative="1" as="geometry">
            <mxPoint x="185" y="172.5" as="targetPoint"/>
          </mxGeometry>
        </mxCell>
        <mxCell id="C5bLut2PyVihQ1xD9vGi-6" value="" style="rhombus;whiteSpace=wrap;html=1;fillColor=#ffffc0;strokeColor=#ff0000;" parent="i2BeWmiV6soi__xf4dNW-1" vertex="1">
          <mxGeometry x="150" y="167.5" width="80" height="40" as="geometry"/>
        </mxCell>
        <mxCell id="C5bLut2PyVihQ1xD9vGi-7" value="&lt;font style=&quot;font-size: 9px&quot;&gt;Ne pas s&#39;identifier&lt;/font&gt;" style="edgeStyle=orthogonalEdgeStyle;html=1;align=left;verticalAlign=bottom;endArrow=open;endSize=8;strokeColor=#ff0000;" parent="i2BeWmiV6soi__xf4dNW-1" source="C5bLut2PyVihQ1xD9vGi-6" edge="1">
          <mxGeometry x="0.0111" y="-173" relative="1" as="geometry">
            <mxPoint x="320" y="187" as="targetPoint"/>
            <mxPoint x="-172" y="-140" as="offset"/>
          </mxGeometry>
        </mxCell>
        <mxCell id="C5bLut2PyVihQ1xD9vGi-8" value="&lt;font style=&quot;font-size: 9px&quot;&gt;S&#39;identifier&lt;/font&gt;" style="edgeStyle=orthogonalEdgeStyle;html=1;align=left;verticalAlign=top;endArrow=open;endSize=8;strokeColor=#ff0000;entryX=0;entryY=0.5;entryDx=0;entryDy=0;" parent="i2BeWmiV6soi__xf4dNW-1" source="C5bLut2PyVihQ1xD9vGi-6" target="W3sUU0FEQkod-V1EuSxA-0" edge="1">
          <mxGeometry x="-1" y="58" relative="1" as="geometry">
            <mxPoint x="340" y="330" as="targetPoint"/>
            <Array as="points">
              <mxPoint x="190" y="335"/>
            </Array>
            <mxPoint x="-18" y="-42" as="offset"/>
          </mxGeometry>
        </mxCell>
        <mxCell id="C5bLut2PyVihQ1xD9vGi-11" value="Inscription comme client" style="rounded=1;whiteSpace=wrap;html=1;arcSize=40;fontColor=#000000;fillColor=#ffffc0;strokeColor=#ff0000;" parent="i2BeWmiV6soi__xf4dNW-1" vertex="1">
          <mxGeometry x="480" y="167.5" width="120" height="40" as="geometry"/>
        </mxCell>
        <mxCell id="z9Ic1R9GKJpyGlVaEFm--1" value="&lt;font style=&quot;font-size: 17px&quot;&gt;&lt;b&gt;Workflow &quot;Authentification&quot;&lt;/b&gt;&lt;/font&gt;" style="text;html=1;resizable=0;points=[];autosize=1;align=left;verticalAlign=top;spacingTop=-4;fontSize=15;" parent="i2BeWmiV6soi__xf4dNW-1" vertex="1">
          <mxGeometry x="525" y="70" width="240" height="25" as="geometry"/>
        </mxCell>
        <mxCell id="W3sUU0FEQkod-V1EuSxA-0" value="" style="ellipse;html=1;shape=endState;fillColor=#000000;strokeColor=#ff0000;" parent="i2BeWmiV6soi__xf4dNW-1" vertex="1">
          <mxGeometry x="365" y="320" width="30" height="30" as="geometry"/>
        </mxCell>
      </root>
    </mxGraphModel>
  </diagram>
  <diagram id="Bt3yq9YPiLcyIowHXMEQ" name="Workflow &quot;Commander une pizza&quot;">
    <mxGraphModel dx="895" dy="469" grid="1" gridSize="10" guides="1" tooltips="1" connect="1" arrows="1" fold="1" page="1" pageScale="1" pageWidth="827" pageHeight="1169" math="0" shadow="0">
      <root>
        <mxCell id="SSM7hxeRhsvnf6WhIKMx-0"/>
        <mxCell id="SSM7hxeRhsvnf6WhIKMx-1" parent="SSM7hxeRhsvnf6WhIKMx-0"/>
        <mxCell id="UZc7Pd-gbt9SaJlDabqX-0" value="" style="shape=ext;double=1;rounded=1;whiteSpace=wrap;html=1;fontSize=15;movable=1;resizable=1;rotatable=1;deletable=1;editable=1;connectable=1;" parent="SSM7hxeRhsvnf6WhIKMx-1" vertex="1">
          <mxGeometry x="84.5" y="18.5" width="710" height="850" as="geometry"/>
        </mxCell>
        <mxCell id="r0QUNAeZI28ZUWiVC6_W-1" value="Lister les pizza" style="rounded=1;whiteSpace=wrap;html=1;arcSize=40;fontColor=#000000;fillColor=#ffffc0;strokeColor=#ff0000;" parent="SSM7hxeRhsvnf6WhIKMx-1" vertex="1">
          <mxGeometry x="387" y="136.5" width="120" height="40" as="geometry"/>
        </mxCell>
        <mxCell id="r0QUNAeZI28ZUWiVC6_W-2" value="" style="edgeStyle=orthogonalEdgeStyle;html=1;verticalAlign=bottom;endArrow=open;endSize=8;strokeColor=#ff0000;exitX=0.5;exitY=1;exitDx=0;exitDy=0;" parent="SSM7hxeRhsvnf6WhIKMx-1" source="r0QUNAeZI28ZUWiVC6_W-1" edge="1">
          <mxGeometry relative="1" as="geometry">
            <mxPoint x="446.66666666666674" y="201.16666666666674" as="targetPoint"/>
            <Array as="points">
              <mxPoint x="447" y="186.5"/>
              <mxPoint x="447" y="186.5"/>
            </Array>
          </mxGeometry>
        </mxCell>
        <mxCell id="r0QUNAeZI28ZUWiVC6_W-3" value="Choisir Pizza(s)" style="rounded=1;whiteSpace=wrap;html=1;arcSize=40;fontColor=#000000;fillColor=#ffffc0;strokeColor=#ff0000;" parent="SSM7hxeRhsvnf6WhIKMx-1" vertex="1">
          <mxGeometry x="382" y="201.5" width="120" height="40" as="geometry"/>
        </mxCell>
        <mxCell id="r0QUNAeZI28ZUWiVC6_W-4" value="" style="edgeStyle=orthogonalEdgeStyle;html=1;verticalAlign=bottom;endArrow=open;endSize=8;strokeColor=#ff0000;" parent="SSM7hxeRhsvnf6WhIKMx-1" edge="1">
          <mxGeometry relative="1" as="geometry">
            <mxPoint x="442" y="267.5" as="targetPoint"/>
            <mxPoint x="441.66666666666674" y="241.16666666666674" as="sourcePoint"/>
            <Array as="points">
              <mxPoint x="441.5" y="256"/>
              <mxPoint x="441.5" y="256"/>
            </Array>
          </mxGeometry>
        </mxCell>
        <mxCell id="r0QUNAeZI28ZUWiVC6_W-5" value="Choisir quantité" style="rounded=1;whiteSpace=wrap;html=1;arcSize=40;fontColor=#000000;fillColor=#ffffc0;strokeColor=#ff0000;" parent="SSM7hxeRhsvnf6WhIKMx-1" vertex="1">
          <mxGeometry x="382" y="270" width="120" height="40" as="geometry"/>
        </mxCell>
        <mxCell id="r0QUNAeZI28ZUWiVC6_W-6" value="" style="edgeStyle=orthogonalEdgeStyle;html=1;verticalAlign=bottom;endArrow=open;endSize=8;strokeColor=#ff0000;" parent="SSM7hxeRhsvnf6WhIKMx-1" edge="1">
          <mxGeometry relative="1" as="geometry">
            <mxPoint x="441.66666666666697" y="341.3333333333335" as="targetPoint"/>
            <mxPoint x="441.66666666666697" y="309.66666666666674" as="sourcePoint"/>
            <Array as="points">
              <mxPoint x="442" y="325"/>
              <mxPoint x="442" y="325"/>
            </Array>
          </mxGeometry>
        </mxCell>
        <mxCell id="r0QUNAeZI28ZUWiVC6_W-10" value="Constituer panier" style="rounded=1;whiteSpace=wrap;html=1;arcSize=40;fontColor=#000000;fillColor=#ffffc0;strokeColor=#ff0000;" parent="SSM7hxeRhsvnf6WhIKMx-1" vertex="1">
          <mxGeometry x="380" y="338.5" width="120" height="40" as="geometry"/>
        </mxCell>
        <mxCell id="r0QUNAeZI28ZUWiVC6_W-11" value="" style="edgeStyle=orthogonalEdgeStyle;html=1;verticalAlign=bottom;endArrow=open;endSize=8;strokeColor=#ff0000;" parent="SSM7hxeRhsvnf6WhIKMx-1" edge="1">
          <mxGeometry relative="1" as="geometry">
            <mxPoint x="439.66666666666674" y="403.16666666666674" as="targetPoint"/>
            <mxPoint x="439.66666666666674" y="378.16666666666674" as="sourcePoint"/>
            <Array as="points">
              <mxPoint x="440" y="388.5"/>
            </Array>
          </mxGeometry>
        </mxCell>
        <mxCell id="r0QUNAeZI28ZUWiVC6_W-12" value="Saisir infos livraison" style="rounded=1;whiteSpace=wrap;html=1;arcSize=40;fontColor=#000000;fillColor=#ffffc0;strokeColor=#ff0000;" parent="SSM7hxeRhsvnf6WhIKMx-1" vertex="1">
          <mxGeometry x="380" y="403.5" width="120" height="40" as="geometry"/>
        </mxCell>
        <mxCell id="r0QUNAeZI28ZUWiVC6_W-13" value="" style="edgeStyle=orthogonalEdgeStyle;html=1;verticalAlign=bottom;endArrow=open;endSize=8;strokeColor=#ff0000;" parent="SSM7hxeRhsvnf6WhIKMx-1" edge="1">
          <mxGeometry relative="1" as="geometry">
            <mxPoint x="439.66666666666674" y="468.16666666666674" as="targetPoint"/>
            <mxPoint x="439.66666666666674" y="443.16666666666674" as="sourcePoint"/>
            <Array as="points">
              <mxPoint x="440" y="453.5"/>
              <mxPoint x="440" y="453.5"/>
            </Array>
          </mxGeometry>
        </mxCell>
        <mxCell id="r0QUNAeZI28ZUWiVC6_W-14" value="Sélectionner méthode de paiement" style="rounded=1;whiteSpace=wrap;html=1;arcSize=40;fontColor=#000000;fillColor=#ffffc0;strokeColor=#ff0000;" parent="SSM7hxeRhsvnf6WhIKMx-1" vertex="1">
          <mxGeometry x="380" y="468.5" width="120" height="40" as="geometry"/>
        </mxCell>
        <mxCell id="r0QUNAeZI28ZUWiVC6_W-15" value="" style="edgeStyle=orthogonalEdgeStyle;html=1;verticalAlign=bottom;endArrow=open;endSize=8;strokeColor=#ff0000;" parent="SSM7hxeRhsvnf6WhIKMx-1" edge="1">
          <mxGeometry relative="1" as="geometry">
            <mxPoint x="439.66666666666674" y="533.1666666666667" as="targetPoint"/>
            <mxPoint x="439.66666666666674" y="508.16666666666674" as="sourcePoint"/>
            <Array as="points">
              <mxPoint x="440" y="518.5"/>
              <mxPoint x="440" y="518.5"/>
            </Array>
          </mxGeometry>
        </mxCell>
        <mxCell id="r0QUNAeZI28ZUWiVC6_W-16" value="" style="rhombus;whiteSpace=wrap;html=1;fillColor=#ffffc0;strokeColor=#ff0000;" parent="SSM7hxeRhsvnf6WhIKMx-1" vertex="1">
          <mxGeometry x="400" y="596" width="80" height="40" as="geometry"/>
        </mxCell>
        <mxCell id="r0QUNAeZI28ZUWiVC6_W-17" value="&lt;font style=&quot;font-size: 9px&quot;&gt;Pas Ok&lt;/font&gt;" style="edgeStyle=orthogonalEdgeStyle;html=1;align=left;verticalAlign=bottom;endArrow=open;endSize=8;strokeColor=#ff0000;entryX=0.5;entryY=0;entryDx=0;entryDy=0;" parent="SSM7hxeRhsvnf6WhIKMx-1" target="r0QUNAeZI28ZUWiVC6_W-29" edge="1">
          <mxGeometry x="-0.8325" y="-6" relative="1" as="geometry">
            <mxPoint x="66" y="762.5" as="targetPoint"/>
            <mxPoint x="399.66666666666674" y="615.6666666666667" as="sourcePoint"/>
            <Array as="points">
              <mxPoint x="400" y="616.5"/>
              <mxPoint x="240" y="616.5"/>
            </Array>
            <mxPoint as="offset"/>
          </mxGeometry>
        </mxCell>
        <mxCell id="r0QUNAeZI28ZUWiVC6_W-23" value="&lt;font style=&quot;font-size: 9px&quot;&gt;Ok&lt;/font&gt;" style="edgeStyle=orthogonalEdgeStyle;html=1;align=left;verticalAlign=top;endArrow=open;endSize=8;strokeColor=#ff0000;" parent="SSM7hxeRhsvnf6WhIKMx-1" edge="1">
          <mxGeometry x="-0.5672" y="22" relative="1" as="geometry">
            <mxPoint x="440" y="700" as="targetPoint"/>
            <Array as="points">
              <mxPoint x="440" y="650"/>
              <mxPoint x="440" y="650"/>
            </Array>
            <mxPoint x="-12" y="-20" as="offset"/>
            <mxPoint x="439.6470588235293" y="635.9264705882351" as="sourcePoint"/>
          </mxGeometry>
        </mxCell>
        <mxCell id="r0QUNAeZI28ZUWiVC6_W-29" value="Recapitulatif de l&#39;achat /&lt;br&gt;message d&#39;erreur" style="rounded=1;whiteSpace=wrap;html=1;arcSize=40;fontColor=#000000;fillColor=#ffffc0;strokeColor=#ff0000;" parent="SSM7hxeRhsvnf6WhIKMx-1" vertex="1">
          <mxGeometry x="164" y="692.5" width="150" height="40" as="geometry"/>
        </mxCell>
        <mxCell id="r0QUNAeZI28ZUWiVC6_W-30" value="" style="edgeStyle=orthogonalEdgeStyle;html=1;verticalAlign=bottom;endArrow=open;endSize=8;strokeColor=#ff0000;exitX=0.5;exitY=1;exitDx=0;exitDy=0;" parent="SSM7hxeRhsvnf6WhIKMx-1" source="r0QUNAeZI28ZUWiVC6_W-29" target="r0QUNAeZI28ZUWiVC6_W-32" edge="1">
          <mxGeometry relative="1" as="geometry">
            <mxPoint x="65" y="921" as="targetPoint"/>
            <Array as="points">
              <mxPoint x="239" y="790"/>
            </Array>
          </mxGeometry>
        </mxCell>
        <mxCell id="r0QUNAeZI28ZUWiVC6_W-31" value="Recapitulatif de l&#39;achat /&lt;br&gt;confirmation" style="rounded=1;whiteSpace=wrap;html=1;arcSize=40;fontColor=#000000;fillColor=#ffffc0;strokeColor=#ff0000;" parent="SSM7hxeRhsvnf6WhIKMx-1" vertex="1">
          <mxGeometry x="365" y="700" width="150" height="40" as="geometry"/>
        </mxCell>
        <mxCell id="r0QUNAeZI28ZUWiVC6_W-32" value="" style="ellipse;html=1;shape=endState;fillColor=#000000;strokeColor=#ff0000;" parent="SSM7hxeRhsvnf6WhIKMx-1" vertex="1">
          <mxGeometry x="424.5" y="775" width="30" height="30" as="geometry"/>
        </mxCell>
        <mxCell id="r0QUNAeZI28ZUWiVC6_W-33" value="" style="edgeStyle=orthogonalEdgeStyle;html=1;verticalAlign=bottom;endArrow=open;endSize=8;strokeColor=#ff0000;" parent="SSM7hxeRhsvnf6WhIKMx-1" edge="1">
          <mxGeometry relative="1" as="geometry">
            <mxPoint x="439.66666666666674" y="774.6666666666667" as="targetPoint"/>
            <mxPoint x="439.66666666666674" y="739.6666666666667" as="sourcePoint"/>
            <Array as="points">
              <mxPoint x="440.5" y="754.0868298760774"/>
              <mxPoint x="440.5" y="754.0868298760774"/>
            </Array>
          </mxGeometry>
        </mxCell>
        <mxCell id="r0QUNAeZI28ZUWiVC6_W-34" value="&lt;font style=&quot;font-size: 17px&quot;&gt;&lt;b&gt;Workflow &quot;Commander&lt;br&gt;&amp;nbsp; &amp;nbsp; &amp;nbsp; &amp;nbsp; &amp;nbsp; &amp;nbsp;une pizza&quot;&lt;br&gt;&lt;/b&gt;&lt;/font&gt;" style="text;html=1;resizable=0;points=[];autosize=1;align=left;verticalAlign=top;spacingTop=-4;fontSize=15;" parent="SSM7hxeRhsvnf6WhIKMx-1" vertex="1">
          <mxGeometry x="100" y="116.388916015625" width="200" height="40" as="geometry"/>
        </mxCell>
        <mxCell id="21yXNdz_mcmhv9xcBJyb-0" value="" style="ellipse;html=1;shape=startState;fillColor=#000000;strokeColor=#ff0000;" parent="SSM7hxeRhsvnf6WhIKMx-1" vertex="1">
          <mxGeometry x="427" y="42.5" width="30" height="30" as="geometry"/>
        </mxCell>
        <mxCell id="21yXNdz_mcmhv9xcBJyb-1" value="" style="edgeStyle=orthogonalEdgeStyle;html=1;verticalAlign=bottom;endArrow=open;endSize=8;strokeColor=#ff0000;" parent="SSM7hxeRhsvnf6WhIKMx-1" source="21yXNdz_mcmhv9xcBJyb-0" edge="1">
          <mxGeometry relative="1" as="geometry">
            <mxPoint x="442" y="132.5" as="targetPoint"/>
          </mxGeometry>
        </mxCell>
        <mxCell id="21yXNdz_mcmhv9xcBJyb-12" value="Enregistrer règlement" style="rounded=1;whiteSpace=wrap;html=1;arcSize=40;fontColor=#000000;fillColor=#ffffc0;strokeColor=#ff0000;" parent="SSM7hxeRhsvnf6WhIKMx-1" vertex="1">
          <mxGeometry x="380" y="530" width="120" height="40" as="geometry"/>
        </mxCell>
        <mxCell id="21yXNdz_mcmhv9xcBJyb-13" value="" style="edgeStyle=orthogonalEdgeStyle;html=1;verticalAlign=bottom;endArrow=open;endSize=8;strokeColor=#ff0000;" parent="SSM7hxeRhsvnf6WhIKMx-1" edge="1">
          <mxGeometry relative="1" as="geometry">
            <mxPoint x="439.6470588235293" y="594.3823529411766" as="targetPoint"/>
            <mxPoint x="439.6470588235293" y="569.6764705882354" as="sourcePoint"/>
            <Array as="points">
              <mxPoint x="440" y="580"/>
              <mxPoint x="440" y="580"/>
            </Array>
          </mxGeometry>
        </mxCell>
      </root>
    </mxGraphModel>
  </diagram>
  <diagram id="XTaVWKk7kB7N8QRXBbll" name="Workflow &quot;Modifier une commande&quot;">
    <mxGraphModel dx="895" dy="469" grid="1" gridSize="10" guides="1" tooltips="1" connect="1" arrows="1" fold="1" page="1" pageScale="1" pageWidth="827" pageHeight="1169" math="0" shadow="0">
      <root>
        <mxCell id="0bvTGFku3le64W0f7Zgj-0"/>
        <mxCell id="0bvTGFku3le64W0f7Zgj-1" parent="0bvTGFku3le64W0f7Zgj-0"/>
        <mxCell id="TxP0cXCg-SbjuzAp3meA-0" value="" style="shape=ext;double=1;rounded=1;whiteSpace=wrap;html=1;fontSize=15;movable=1;resizable=1;rotatable=1;deletable=1;editable=1;connectable=1;" parent="0bvTGFku3le64W0f7Zgj-1" vertex="1">
          <mxGeometry x="70" y="170" width="710" height="430" as="geometry"/>
        </mxCell>
        <mxCell id="0bvTGFku3le64W0f7Zgj-2" value="Demande de modification" style="rounded=1;whiteSpace=wrap;html=1;arcSize=40;fontColor=#000000;fillColor=#ffffc0;strokeColor=#ff0000;" parent="0bvTGFku3le64W0f7Zgj-1" vertex="1">
          <mxGeometry x="429.8210347493489" y="250" width="120" height="40" as="geometry"/>
        </mxCell>
        <mxCell id="0bvTGFku3le64W0f7Zgj-3" value="" style="edgeStyle=orthogonalEdgeStyle;html=1;verticalAlign=bottom;endArrow=open;endSize=8;strokeColor=#ff0000;" parent="0bvTGFku3le64W0f7Zgj-1" edge="1">
          <mxGeometry relative="1" as="geometry">
            <mxPoint x="489.74960617792044" y="314.78571428571433" as="targetPoint"/>
            <mxPoint x="489.74960617792044" y="290.5000000000001" as="sourcePoint"/>
            <Array as="points">
              <mxPoint x="489.8210347493489" y="300"/>
              <mxPoint x="489.8210347493489" y="300"/>
            </Array>
          </mxGeometry>
        </mxCell>
        <mxCell id="0bvTGFku3le64W0f7Zgj-4" value="" style="rhombus;whiteSpace=wrap;html=1;fillColor=#ffffc0;strokeColor=#ff0000;" parent="0bvTGFku3le64W0f7Zgj-1" vertex="1">
          <mxGeometry x="449.3210347493489" y="315" width="80" height="40" as="geometry"/>
        </mxCell>
        <mxCell id="0bvTGFku3le64W0f7Zgj-5" value="&lt;font style=&quot;font-size: 9px&quot;&gt;Oui&lt;/font&gt;" style="edgeStyle=orthogonalEdgeStyle;html=1;align=left;verticalAlign=bottom;endArrow=open;endSize=8;strokeColor=#ff0000;exitX=0;exitY=0.5;exitDx=0;exitDy=0;" parent="0bvTGFku3le64W0f7Zgj-1" source="0bvTGFku3le64W0f7Zgj-4" edge="1">
          <mxGeometry x="-0.8285" y="-5" relative="1" as="geometry">
            <mxPoint x="339.74960617792044" y="334.78571428571445" as="targetPoint"/>
            <Array as="points">
              <mxPoint x="434.8210347493489" y="335"/>
              <mxPoint x="434.8210347493489" y="335"/>
            </Array>
            <mxPoint as="offset"/>
          </mxGeometry>
        </mxCell>
        <mxCell id="0bvTGFku3le64W0f7Zgj-6" value="&lt;font style=&quot;font-size: 9px&quot;&gt;Non&lt;/font&gt;" style="edgeStyle=orthogonalEdgeStyle;html=1;align=left;verticalAlign=top;endArrow=open;endSize=8;strokeColor=#ff0000;entryX=0.5;entryY=0;entryDx=0;entryDy=0;" parent="0bvTGFku3le64W0f7Zgj-1" source="0bvTGFku3le64W0f7Zgj-4" target="0bvTGFku3le64W0f7Zgj-11" edge="1">
          <mxGeometry x="-1" y="7" relative="1" as="geometry">
            <mxPoint x="489.3210347493489" y="380" as="targetPoint"/>
            <Array as="points"/>
            <mxPoint x="-2" y="-5" as="offset"/>
          </mxGeometry>
        </mxCell>
        <mxCell id="0bvTGFku3le64W0f7Zgj-7" value="Verifier statut commande&amp;nbsp;" style="rounded=1;whiteSpace=wrap;html=1;arcSize=40;fontColor=#000000;fillColor=#ffffc0;strokeColor=#ff0000;" parent="0bvTGFku3le64W0f7Zgj-1" vertex="1">
          <mxGeometry x="220" y="315" width="120" height="40" as="geometry"/>
        </mxCell>
        <mxCell id="0bvTGFku3le64W0f7Zgj-8" value="" style="edgeStyle=orthogonalEdgeStyle;html=1;verticalAlign=bottom;endArrow=open;endSize=8;strokeColor=#ff0000;entryX=0.5;entryY=0;entryDx=0;entryDy=0;" parent="0bvTGFku3le64W0f7Zgj-1" source="0bvTGFku3le64W0f7Zgj-7" target="0bvTGFku3le64W0f7Zgj-9" edge="1">
          <mxGeometry relative="1" as="geometry">
            <mxPoint x="280.82103474934894" y="380" as="targetPoint"/>
            <Array as="points">
              <mxPoint x="279.82103474934894" y="370"/>
            </Array>
          </mxGeometry>
        </mxCell>
        <mxCell id="0bvTGFku3le64W0f7Zgj-9" value="" style="rhombus;whiteSpace=wrap;html=1;fillColor=#ffffc0;strokeColor=#ff0000;" parent="0bvTGFku3le64W0f7Zgj-1" vertex="1">
          <mxGeometry x="239.32103474934894" y="385" width="80" height="40" as="geometry"/>
        </mxCell>
        <mxCell id="0bvTGFku3le64W0f7Zgj-10" value="&lt;font style=&quot;font-size: 9px&quot;&gt;Commande pas encore preparée&lt;/font&gt;" style="edgeStyle=orthogonalEdgeStyle;html=1;align=left;verticalAlign=top;endArrow=open;endSize=8;strokeColor=#ff0000;entryX=0;entryY=0.5;entryDx=0;entryDy=0;" parent="0bvTGFku3le64W0f7Zgj-1" source="0bvTGFku3le64W0f7Zgj-9" target="0bvTGFku3le64W0f7Zgj-11" edge="1">
          <mxGeometry x="-0.2798" y="50" relative="1" as="geometry">
            <mxPoint x="279.32103474934894" y="465" as="targetPoint"/>
            <Array as="points">
              <mxPoint x="278.82103474934894" y="485"/>
            </Array>
            <mxPoint as="offset"/>
          </mxGeometry>
        </mxCell>
        <mxCell id="0bvTGFku3le64W0f7Zgj-11" value="Recapitulatif de l&#39;achat /&lt;br&gt;confirmation" style="rounded=1;whiteSpace=wrap;html=1;arcSize=40;fontColor=#000000;fillColor=#ffffc0;strokeColor=#ff0000;" parent="0bvTGFku3le64W0f7Zgj-1" vertex="1">
          <mxGeometry x="414.8210347493489" y="465" width="150" height="40" as="geometry"/>
        </mxCell>
      </root>
    </mxGraphModel>
  </diagram>
  <diagram id="uglMqzovDUY2RrntonIo" name="Diagramme de classe">
    <mxGraphModel dx="895" dy="469" grid="1" gridSize="10" guides="1" tooltips="1" connect="1" arrows="1" fold="1" page="1" pageScale="1" pageWidth="827" pageHeight="1169" math="0" shadow="0">
      <root>
        <mxCell id="XbUyowNoPK-bHRpkxlSo-0"/>
        <mxCell id="XbUyowNoPK-bHRpkxlSo-1" parent="XbUyowNoPK-bHRpkxlSo-0"/>
        <mxCell id="XbUyowNoPK-bHRpkxlSo-2" value="Customer" style="swimlane;fontStyle=1;align=center;verticalAlign=top;childLayout=stackLayout;horizontal=1;startSize=26;horizontalStack=0;resizeParent=1;resizeParentMax=0;resizeLast=0;collapsible=1;marginBottom=0;" vertex="1" parent="XbUyowNoPK-bHRpkxlSo-1">
          <mxGeometry x="110" y="99" width="160" height="140" as="geometry">
            <mxRectangle x="110" y="99" width="60" height="26" as="alternateBounds"/>
          </mxGeometry>
        </mxCell>
        <mxCell id="XbUyowNoPK-bHRpkxlSo-3" value="- name: String&#xa;- address: Char&#xa;- login : String&#xa;- password : String&#xa;" style="text;strokeColor=none;fillColor=none;align=left;verticalAlign=top;spacingLeft=4;spacingRight=4;overflow=hidden;rotatable=0;points=[[0,0.5],[1,0.5]];portConstraint=eastwest;" vertex="1" parent="XbUyowNoPK-bHRpkxlSo-2">
          <mxGeometry y="26" width="160" height="74" as="geometry"/>
        </mxCell>
        <mxCell id="XbUyowNoPK-bHRpkxlSo-4" value="" style="line;strokeWidth=1;fillColor=none;align=left;verticalAlign=middle;spacingTop=-1;spacingLeft=3;spacingRight=3;rotatable=0;labelPosition=right;points=[];portConstraint=eastwest;" vertex="1" parent="XbUyowNoPK-bHRpkxlSo-2">
          <mxGeometry y="100" width="160" height="8" as="geometry"/>
        </mxCell>
        <mxCell id="XbUyowNoPK-bHRpkxlSo-5" value="+ method(type): type" style="text;strokeColor=none;fillColor=none;align=left;verticalAlign=top;spacingLeft=4;spacingRight=4;overflow=hidden;rotatable=0;points=[[0,0.5],[1,0.5]];portConstraint=eastwest;" vertex="1" parent="XbUyowNoPK-bHRpkxlSo-2">
          <mxGeometry y="108" width="160" height="32" as="geometry"/>
        </mxCell>
        <mxCell id="HHGC2-5ejdAsJBH0t9-Y-0" value="Restaurant" style="swimlane;fontStyle=1;align=center;verticalAlign=top;childLayout=stackLayout;horizontal=1;startSize=26;horizontalStack=0;resizeParent=1;resizeParentMax=0;resizeLast=0;collapsible=1;marginBottom=0;" vertex="1" parent="XbUyowNoPK-bHRpkxlSo-1">
          <mxGeometry x="550" y="99" width="180" height="148" as="geometry"/>
        </mxCell>
        <mxCell id="HHGC2-5ejdAsJBH0t9-Y-1" value="- address: Char&#xa;- manager : String&#xa;- pizzas: ArrayList&lt;Pizzas&gt;&#xa;" style="text;strokeColor=none;fillColor=none;align=left;verticalAlign=top;spacingLeft=4;spacingRight=4;overflow=hidden;rotatable=0;points=[[0,0.5],[1,0.5]];portConstraint=eastwest;" vertex="1" parent="HHGC2-5ejdAsJBH0t9-Y-0">
          <mxGeometry y="26" width="180" height="54" as="geometry"/>
        </mxCell>
        <mxCell id="HHGC2-5ejdAsJBH0t9-Y-2" value="" style="line;strokeWidth=1;fillColor=none;align=left;verticalAlign=middle;spacingTop=-1;spacingLeft=3;spacingRight=3;rotatable=0;labelPosition=right;points=[];portConstraint=eastwest;" vertex="1" parent="HHGC2-5ejdAsJBH0t9-Y-0">
          <mxGeometry y="80" width="180" height="8" as="geometry"/>
        </mxCell>
        <mxCell id="HHGC2-5ejdAsJBH0t9-Y-3" value="+ method(type): type" style="text;strokeColor=none;fillColor=none;align=left;verticalAlign=top;spacingLeft=4;spacingRight=4;overflow=hidden;rotatable=0;points=[[0,0.5],[1,0.5]];portConstraint=eastwest;" vertex="1" parent="HHGC2-5ejdAsJBH0t9-Y-0">
          <mxGeometry y="88" width="180" height="60" as="geometry"/>
        </mxCell>
        <mxCell id="HHGC2-5ejdAsJBH0t9-Y-4" value="Order" style="swimlane;fontStyle=1;align=center;verticalAlign=top;childLayout=stackLayout;horizontal=1;startSize=26;horizontalStack=0;resizeParent=1;resizeParentMax=0;resizeLast=0;collapsible=1;marginBottom=0;" vertex="1" parent="XbUyowNoPK-bHRpkxlSo-1">
          <mxGeometry x="270" y="285" width="190" height="180" as="geometry"/>
        </mxCell>
        <mxCell id="HHGC2-5ejdAsJBH0t9-Y-5" value="- orderNumber : Integer&#xa;- dateCreated : Date&#xa;- status : Enum&#xa;- isDelivered : Boolean" style="text;strokeColor=none;fillColor=none;align=left;verticalAlign=top;spacingLeft=4;spacingRight=4;overflow=hidden;rotatable=0;points=[[0,0.5],[1,0.5]];portConstraint=eastwest;" vertex="1" parent="HHGC2-5ejdAsJBH0t9-Y-4">
          <mxGeometry y="26" width="190" height="64" as="geometry"/>
        </mxCell>
        <mxCell id="HHGC2-5ejdAsJBH0t9-Y-6" value="" style="line;strokeWidth=1;fillColor=none;align=left;verticalAlign=middle;spacingTop=-1;spacingLeft=3;spacingRight=3;rotatable=0;labelPosition=right;points=[];portConstraint=eastwest;" vertex="1" parent="HHGC2-5ejdAsJBH0t9-Y-4">
          <mxGeometry y="90" width="190" height="30" as="geometry"/>
        </mxCell>
        <mxCell id="HHGC2-5ejdAsJBH0t9-Y-7" value="+ method(type): type" style="text;strokeColor=none;fillColor=none;align=left;verticalAlign=top;spacingLeft=4;spacingRight=4;overflow=hidden;rotatable=0;points=[[0,0.5],[1,0.5]];portConstraint=eastwest;" vertex="1" parent="HHGC2-5ejdAsJBH0t9-Y-4">
          <mxGeometry y="120" width="190" height="60" as="geometry"/>
        </mxCell>
        <mxCell id="fT-4fo-AaOvuEqYQY8Ih-0" value="Manager" style="swimlane;fontStyle=1;align=center;verticalAlign=top;childLayout=stackLayout;horizontal=1;startSize=26;horizontalStack=0;resizeParent=1;resizeParentMax=0;resizeLast=0;collapsible=1;marginBottom=0;" vertex="1" parent="XbUyowNoPK-bHRpkxlSo-1">
          <mxGeometry x="80" y="285" width="160" height="130" as="geometry"/>
        </mxCell>
        <mxCell id="fT-4fo-AaOvuEqYQY8Ih-1" value="- name: String&#xa;- restaurantId: Integer" style="text;strokeColor=none;fillColor=none;align=left;verticalAlign=top;spacingLeft=4;spacingRight=4;overflow=hidden;rotatable=0;points=[[0,0.5],[1,0.5]];portConstraint=eastwest;" vertex="1" parent="fT-4fo-AaOvuEqYQY8Ih-0">
          <mxGeometry y="26" width="160" height="54" as="geometry"/>
        </mxCell>
        <mxCell id="fT-4fo-AaOvuEqYQY8Ih-2" value="" style="line;strokeWidth=1;fillColor=none;align=left;verticalAlign=middle;spacingTop=-1;spacingLeft=3;spacingRight=3;rotatable=0;labelPosition=right;points=[];portConstraint=eastwest;" vertex="1" parent="fT-4fo-AaOvuEqYQY8Ih-0">
          <mxGeometry y="80" width="160" height="8" as="geometry"/>
        </mxCell>
        <mxCell id="fT-4fo-AaOvuEqYQY8Ih-3" value="+ method(type): type" style="text;strokeColor=none;fillColor=none;align=left;verticalAlign=top;spacingLeft=4;spacingRight=4;overflow=hidden;rotatable=0;points=[[0,0.5],[1,0.5]];portConstraint=eastwest;" vertex="1" parent="fT-4fo-AaOvuEqYQY8Ih-0">
          <mxGeometry y="88" width="160" height="42" as="geometry"/>
        </mxCell>
        <mxCell id="fT-4fo-AaOvuEqYQY8Ih-4" value="DeliveryBoy" style="swimlane;fontStyle=1;align=center;verticalAlign=top;childLayout=stackLayout;horizontal=1;startSize=26;horizontalStack=0;resizeParent=1;resizeParentMax=0;resizeLast=0;collapsible=1;marginBottom=0;" vertex="1" parent="XbUyowNoPK-bHRpkxlSo-1">
          <mxGeometry x="510" y="460" width="160" height="138" as="geometry"/>
        </mxCell>
        <mxCell id="fT-4fo-AaOvuEqYQY8Ih-5" value="- name : String&#xa;- orderNumber : integer&#xa;- vehicle: String&#xa;" style="text;strokeColor=none;fillColor=none;align=left;verticalAlign=top;spacingLeft=4;spacingRight=4;overflow=hidden;rotatable=0;points=[[0,0.5],[1,0.5]];portConstraint=eastwest;" vertex="1" parent="fT-4fo-AaOvuEqYQY8Ih-4">
          <mxGeometry y="26" width="160" height="64" as="geometry"/>
        </mxCell>
        <mxCell id="fT-4fo-AaOvuEqYQY8Ih-6" value="" style="line;strokeWidth=1;fillColor=none;align=left;verticalAlign=middle;spacingTop=-1;spacingLeft=3;spacingRight=3;rotatable=0;labelPosition=right;points=[];portConstraint=eastwest;" vertex="1" parent="fT-4fo-AaOvuEqYQY8Ih-4">
          <mxGeometry y="90" width="160" height="8" as="geometry"/>
        </mxCell>
        <mxCell id="fT-4fo-AaOvuEqYQY8Ih-7" value="+ method(type): type" style="text;strokeColor=none;fillColor=none;align=left;verticalAlign=top;spacingLeft=4;spacingRight=4;overflow=hidden;rotatable=0;points=[[0,0.5],[1,0.5]];portConstraint=eastwest;" vertex="1" parent="fT-4fo-AaOvuEqYQY8Ih-4">
          <mxGeometry y="98" width="160" height="40" as="geometry"/>
        </mxCell>
        <mxCell id="fT-4fo-AaOvuEqYQY8Ih-8" value="Pizza" style="swimlane;fontStyle=1;align=center;verticalAlign=top;childLayout=stackLayout;horizontal=1;startSize=26;horizontalStack=0;resizeParent=1;resizeParentMax=0;resizeLast=0;collapsible=1;marginBottom=0;" vertex="1" parent="XbUyowNoPK-bHRpkxlSo-1">
          <mxGeometry x="350" y="91" width="160" height="148" as="geometry"/>
        </mxCell>
        <mxCell id="fT-4fo-AaOvuEqYQY8Ih-9" value="- ingredients: Char&#xa;- price: Double" style="text;strokeColor=none;fillColor=none;align=left;verticalAlign=top;spacingLeft=4;spacingRight=4;overflow=hidden;rotatable=0;points=[[0,0.5],[1,0.5]];portConstraint=eastwest;" vertex="1" parent="fT-4fo-AaOvuEqYQY8Ih-8">
          <mxGeometry y="26" width="160" height="44" as="geometry"/>
        </mxCell>
        <mxCell id="fT-4fo-AaOvuEqYQY8Ih-10" value="" style="line;strokeWidth=1;fillColor=none;align=left;verticalAlign=middle;spacingTop=-1;spacingLeft=3;spacingRight=3;rotatable=0;labelPosition=right;points=[];portConstraint=eastwest;" vertex="1" parent="fT-4fo-AaOvuEqYQY8Ih-8">
          <mxGeometry y="70" width="160" height="8" as="geometry"/>
        </mxCell>
        <mxCell id="fT-4fo-AaOvuEqYQY8Ih-11" value="+ method(type): type" style="text;strokeColor=none;fillColor=none;align=left;verticalAlign=top;spacingLeft=4;spacingRight=4;overflow=hidden;rotatable=0;points=[[0,0.5],[1,0.5]];portConstraint=eastwest;" vertex="1" parent="fT-4fo-AaOvuEqYQY8Ih-8">
          <mxGeometry y="78" width="160" height="70" as="geometry"/>
        </mxCell>
        <mxCell id="LGBSCNEsKjOJCaYrhDM1-0" value="Stock" style="swimlane;fontStyle=1;align=center;verticalAlign=top;childLayout=stackLayout;horizontal=1;startSize=26;horizontalStack=0;resizeParent=1;resizeParentMax=0;resizeLast=0;collapsible=1;marginBottom=0;" vertex="1" parent="XbUyowNoPK-bHRpkxlSo-1">
          <mxGeometry x="520" y="285" width="180" height="124" as="geometry"/>
        </mxCell>
        <mxCell id="LGBSCNEsKjOJCaYrhDM1-1" value="- products ArrayList&lt;Products&gt;&#xa;- quantities: Float&#xa;" style="text;strokeColor=none;fillColor=none;align=left;verticalAlign=top;spacingLeft=4;spacingRight=4;overflow=hidden;rotatable=0;points=[[0,0.5],[1,0.5]];portConstraint=eastwest;" vertex="1" parent="LGBSCNEsKjOJCaYrhDM1-0">
          <mxGeometry y="26" width="180" height="44" as="geometry"/>
        </mxCell>
        <mxCell id="LGBSCNEsKjOJCaYrhDM1-2" value="" style="line;strokeWidth=1;fillColor=none;align=left;verticalAlign=middle;spacingTop=-1;spacingLeft=3;spacingRight=3;rotatable=0;labelPosition=right;points=[];portConstraint=eastwest;" vertex="1" parent="LGBSCNEsKjOJCaYrhDM1-0">
          <mxGeometry y="70" width="180" height="28" as="geometry"/>
        </mxCell>
        <mxCell id="LGBSCNEsKjOJCaYrhDM1-3" value="+ method(type): type" style="text;strokeColor=none;fillColor=none;align=left;verticalAlign=top;spacingLeft=4;spacingRight=4;overflow=hidden;rotatable=0;points=[[0,0.5],[1,0.5]];portConstraint=eastwest;" vertex="1" parent="LGBSCNEsKjOJCaYrhDM1-0">
          <mxGeometry y="98" width="180" height="26" as="geometry"/>
        </mxCell>
      </root>
    </mxGraphModel>
  </diagram>
</mxfile>
